{
  "source": "C:\\Users\\Peter\\Desktop\\stuff\\MIUN\\quantitative_research\\video_compression\\videos\\BVI-HD\\BVI-HD_CDVL_videos\\ORIG\\Bookcase_1920x1080_60fps.mp4",
  "output": "C:\\Users\\Peter\\Desktop\\stuff\\MIUN\\quantitative_research\\video_compression\\compressed_videos\\BVI-HD\\hevc\\2\\Bookcase_1920x1080_60fps_hevc.mp4",
  "codec": "hevc",
  "ok": "Input #0, mov,mp4,m4a,3gp,3g2,mj2, from 'C:\\Users\\Peter\\Desktop\\stuff\\MIUN\\quantitative_research\\video_compression\\videos\\BVI-HD\\BVI-HD_CDVL_videos\\ORIG\\Bookcase_1920x1080_60fps.mp4':\n  Metadata:\n    major_brand     : isom\n    minor_version   : 512\n    compatible_brands: isomiso2avc1mp41\n    encoder         : Lavf54.28.101\n  Duration: 00:00:05.00, start: 0.000000, bitrate: 336321 kb/s\n  Stream #0:0[0x1](und): Video: h264 (High 4:4:4 Predictive) (avc1 / 0x31637661), yuv420p(progressive), 1920x1080, 336316 kb/s, 60 fps, 60 tbr, 60 tbn (default)\n    Metadata:\n      handler_name    : VideoHandler\n      vendor_id       : [0][0][0][0]\n[out#0/mp4 @ 00000287982cac40] Codec AVOption b:a (set bitrate (in bits/s)) has not been used for any stream. The most likely reason is either wrong type (e.g. a video option with no video streams) or that it is a private option of some decoder which was not actually used for any stream.\nStream mapping:\n  Stream #0:0 -> #0:0 (h264 (native) -> hevc (libx265))\nPress [q] to stop, [?] for help\n[libx265 @ 0000028798960580] Unknown option: \"aq-mode.\nx265 [info]: HEVC encoder version 4.1+190-8f11c33ac\nx265 [info]: build info [Windows][GCC 15.1.0][64 bit] 10bit\nx265 [info]: using cpu capabilities: MMX2 SSE2Fast LZCNT SSSE3 SSE4.2 AVX FMA3 BMI2 AVX2\nx265 [info]: Main 10 profile, Level-4.1 (Main tier)\nx265 [info]: Thread pool created using 12 threads\nx265 [info]: Slices                              : 1\nx265 [info]: frame threads / pool features       : 3 / wpp(17 rows)\nx265 [info]: Coding QT: max CU size, min CU size : 64 / 8\nx265 [info]: Residual QT: max TU size, max depth : 32 / 1 inter / 1 intra\nx265 [info]: ME / range / subpel / merge         : star / 57 / 3 / 3\nx265 [info]: Keyframe min / max / scenecut / bias  : 25 / 250 / 40 / 5.00 \nx265 [info]: Lookahead / bframes / badapt        : 25 / 4 / 2\nx265 [info]: b-pyramid / weightp / weightb       : 1 / 1 / 0\nx265 [info]: References / ref-limit  cu / depth  : 4 / on / on\nx265 [info]: AQ: mode / str / qg-size / cu-tree  : 2 / 1.0 / 32 / 1\nx265 [info]: Rate Control / qCompress            : ABR-2000 kbps / 0.60\nx265 [info]: VBV/HRD buffer / max-rate / init    : 2000 / 2000 / 0.750\nx265 [info]: tools: rect limit-modes rd=4 psy-rd=2.00 rdoq=2 psy-rdoq=1.00\nx265 [info]: tools: rskip mode=1 signhide tmvp strong-intra-smoothing lslices=4\nx265 [info]: tools: deblock sao dhdr10-info\nOutput #0, mp4, to 'C:\\Users\\Peter\\Desktop\\stuff\\MIUN\\quantitative_research\\video_compression\\compressed_videos\\BVI-HD\\hevc\\2\\Bookcase_1920x1080_60fps_hevc.mp4':\n  Metadata:\n    major_brand     : isom\n    minor_version   : 512\n    compatible_brands: isomiso2avc1mp41\n    encoder         : Lavf62.3.100\n  Stream #0:0(und): Video: hevc (hev1 / 0x31766568), yuv420p10le(tv, progressive), 1920x1080, q=2-31, 2000 kb/s, 60 fps, 15360 tbn (default)\n    Metadata:\n      encoder         : Lavc62.11.100 libx265\n      handler_name    : VideoHandler\n      vendor_id       : [0][0][0][0]\n    Side data:\n      cpb: bitrate max/min/avg: 2000000/0/2000000 buffer size: 2000000 vbv_delay: N/A\nframe=    0 fps=0.0 q=0.0 size=       0KiB time=N/A bitrate=N/A speed=N/A elapsed=0:00:00.51    \nframe=    0 fps=0.0 q=0.0 size=       0KiB time=N/A bitrate=N/A speed=N/A elapsed=0:00:01.09    \nframe=    0 fps=0.0 q=0.0 size=       0KiB time=N/A bitrate=N/A speed=N/A elapsed=0:00:01.60    \nframe=    0 fps=0.0 q=0.0 size=       0KiB time=N/A bitrate=N/A speed=N/A elapsed=0:00:02.14    \nframe=    0 fps=0.0 q=0.0 size=       0KiB time=N/A bitrate=N/A speed=N/A elapsed=0:00:02.66    \nframe=    0 fps=0.0 q=0.0 size=       0KiB time=N/A bitrate=N/A speed=N/A elapsed=0:00:03.22    \nframe=    0 fps=0.0 q=0.0 size=       0KiB time=N/A bitrate=N/A speed=N/A elapsed=0:00:03.88    \nframe=    0 fps=0.0 q=0.0 size=       0KiB time=N/A bitrate=N/A speed=N/A elapsed=0:00:04.48    \nframe=    0 fps=0.0 q=0.0 size=       0KiB time=N/A bitrate=N/A speed=N/A elapsed=0:00:05.05    \nframe=    0 fps=0.0 q=0.0 size=       0KiB time=N/A bitrate=N/A speed=N/A elapsed=0:00:05.65    \nframe=    0 fps=0.0 q=0.0 size=       0KiB time=N/A bitrate=N/A speed=N/A elapsed=0:00:06.17    \nframe=    0 fps=0.0 q=0.0 size=       0KiB time=N/A bitrate=N/A speed=N/A elapsed=0:00:06.68    \nframe=    0 fps=0.0 q=0.0 size=       0KiB time=N/A bitrate=N/A speed=N/A elapsed=0:00:07.21    \nframe=    0 fps=0.0 q=0.0 size=       0KiB time=N/A bitrate=N/A speed=N/A elapsed=0:00:07.78    \nframe=    0 fps=0.0 q=0.0 size=       0KiB time=N/A bitrate=N/A speed=N/A elapsed=0:00:08.31    \nframe=    0 fps=0.0 q=0.0 size=       0KiB time=N/A bitrate=N/A speed=N/A elapsed=0:00:08.86    \nframe=    0 fps=0.0 q=0.0 size=       0KiB time=N/A bitrate=N/A speed=N/A elapsed=0:00:09.41    \nframe=    0 fps=0.0 q=0.0 size=       0KiB time=N/A bitrate=N/A speed=N/A elapsed=0:00:09.94    \nframe=    0 fps=0.0 q=0.0 size=       0KiB time=N/A bitrate=N/A speed=N/A elapsed=0:00:10.50    \nframe=    0 fps=0.0 q=0.0 size=       0KiB time=N/A bitrate=N/A speed=N/A elapsed=0:00:11.06    \nframe=    0 fps=0.0 q=0.0 size=       0KiB time=N/A bitrate=N/A speed=N/A elapsed=0:00:11.65    \nframe=    0 fps=0.0 q=0.0 size=       0KiB time=N/A bitrate=N/A speed=N/A elapsed=0:00:12.24    \nframe=    0 fps=0.0 q=0.0 size=       0KiB time=N/A bitrate=N/A speed=N/A elapsed=0:00:12.81    \nframe=    0 fps=0.0 q=0.0 size=       0KiB time=N/A bitrate=N/A speed=N/A elapsed=0:00:13.33    \nframe=    0 fps=0.0 q=0.0 size=       0KiB time=N/A bitrate=N/A speed=N/A elapsed=0:00:13.83    \nframe=    0 fps=0.0 q=0.0 size=       0KiB time=N/A bitrate=N/A speed=N/A elapsed=0:00:14.35    \nframe=    0 fps=0.0 q=0.0 size=       0KiB time=N/A bitrate=N/A speed=N/A elapsed=0:00:14.98    \nframe=    0 fps=0.0 q=0.0 size=       0KiB time=N/A bitrate=N/A speed=N/A elapsed=0:00:15.56    \nframe=    1 fps=0.1 q=38.3 size=       0KiB time=N/A bitrate=N/A speed=N/A elapsed=0:00:16.11    \nframe=    1 fps=0.1 q=38.3 size=       0KiB time=-00:00:00.01 bitrate=N/A speed=N/A elapsed=0:00:16.66    \nframe=    2 fps=0.1 q=40.8 size=       0KiB time=00:00:00.00 bitrate=N/A speed=   0x elapsed=0:00:17.20    \nframe=    2 fps=0.1 q=40.8 size=       0KiB time=00:00:00.00 bitrate=N/A speed=   0x elapsed=0:00:17.76    \nframe=    3 fps=0.2 q=47.0 size=       0KiB time=00:00:00.01 bitrate=  21.1kbits/s speed=0.000907x elapsed=0:00:18.38    \nframe=    3 fps=0.2 q=47.0 size=       0KiB time=00:00:00.01 bitrate=  21.1kbits/s speed=0.000879x elapsed=0:00:18.95    \nframe=    3 fps=0.2 q=47.0 size=       0KiB time=00:00:00.01 bitrate=  21.1kbits/s speed=0.000856x elapsed=0:00:19.47    \nframe=    4 fps=0.2 q=48.0 size=       0KiB time=00:00:00.03 bitrate=  10.6kbits/s speed=0.00167x elapsed=0:00:20.01    \nframe=    4 fps=0.2 q=48.0 size=       0KiB time=00:00:00.03 bitrate=  10.6kbits/s speed=0.00162x elapsed=0:00:20.54    \nframe=    4 fps=0.2 q=48.0 size=       0KiB time=00:00:00.03 bitrate=  10.6kbits/s speed=0.00158x elapsed=0:00:21.06    \nframe=    4 fps=0.2 q=48.0 size=       0KiB time=00:00:00.03 bitrate=  10.6kbits/s speed=0.00154x elapsed=0:00:21.60    \nframe=    5 fps=0.2 q=45.0 size=       0KiB time=00:00:00.03 bitrate=  10.6kbits/s speed=0.0015x elapsed=0:00:22.18    \nframe=    5 fps=0.2 q=45.0 size=       0KiB time=00:00:00.05 bitrate=   7.0kbits/s speed=0.00219x elapsed=0:00:22.78    \nframe=    5 fps=0.2 q=45.0 size=       0KiB time=00:00:00.05 bitrate=   7.0kbits/s speed=0.00214x elapsed=0:00:23.37    \nframe=    6 fps=0.3 q=38.3 size=       0KiB time=00:00:00.06 bitrate=   5.3kbits/s speed=0.00279x elapsed=0:00:23.93    \nframe=    6 fps=0.2 q=38.3 size=       0KiB time=00:00:00.06 bitrate=   5.3kbits/s speed=0.00272x elapsed=0:00:24.49    \nframe=    6 fps=0.2 q=38.3 size=       0KiB time=00:00:00.06 bitrate=   5.3kbits/s speed=0.00266x elapsed=0:00:25.04    \nframe=    6 fps=0.2 q=38.3 size=       0KiB time=00:00:00.06 bitrate=   5.3kbits/s speed=0.00261x elapsed=0:00:25.56    \nframe=    6 fps=0.2 q=38.3 size=       0KiB time=00:00:00.06 bitrate=   5.3kbits/s speed=0.00256x elapsed=0:00:26.07    \nframe=    6 fps=0.2 q=38.3 size=       0KiB time=00:00:00.06 bitrate=   5.3kbits/s speed=0.0025x elapsed=0:00:26.64    \nframe=    6 fps=0.2 q=38.3 size=       0KiB time=00:00:00.06 bitrate=   5.3kbits/s speed=0.00245x elapsed=0:00:27.20    \nframe=    7 fps=0.3 q=40.7 size=       0KiB time=00:00:00.08 bitrate=   4.2kbits/s speed=0.00301x elapsed=0:00:27.72    \nframe=    7 fps=0.2 q=40.7 size=       0KiB time=00:00:00.08 bitrate=   4.2kbits/s speed=0.00295x elapsed=0:00:28.25    \nframe=    7 fps=0.2 q=40.7 size=       0KiB time=00:00:00.08 bitrate=   4.2kbits/s speed=0.00289x elapsed=0:00:28.82    \nframe=    7 fps=0.2 q=40.7 size=       0KiB time=00:00:00.08 bitrate=   4.2kbits/s speed=0.00283x elapsed=0:00:29.47    \nframe=    7 fps=0.2 q=40.7 size=       0KiB time=00:00:00.08 bitrate=   4.2kbits/s speed=0.00278x elapsed=0:00:29.97    \nframe=    8 fps=0.3 q=39.2 size=       0KiB time=00:00:00.10 bitrate=   3.5kbits/s speed=0.00328x elapsed=0:00:30.52    \nframe=    8 fps=0.3 q=39.2 size=       0KiB time=00:00:00.10 bitrate=   3.5kbits/s speed=0.00322x elapsed=0:00:31.06    \nframe=    8 fps=0.3 q=39.2 size=       0KiB time=00:00:00.10 bitrate=   3.5kbits/s speed=0.00316x elapsed=0:00:31.62    \nframe=    8 fps=0.2 q=39.2 size=       0KiB time=00:00:00.10 bitrate=   3.5kbits/s speed=0.00311x elapsed=0:00:32.14    \nframe=    9 fps=0.3 q=38.7 size=       0KiB time=00:00:00.11 bitrate=   3.0kbits/s speed=0.00357x elapsed=0:00:32.67    \nframe=    9 fps=0.3 q=38.7 size=       0KiB time=00:00:00.11 bitrate=   3.0kbits/s speed=0.00351x elapsed=0:00:33.20    \nframe=    9 fps=0.3 q=38.7 size=       0KiB time=00:00:00.11 bitrate=   3.0kbits/s speed=0.00345x elapsed=0:00:33.82    \nframe=   10 fps=0.3 q=38.2 size=       0KiB time=00:00:00.13 bitrate=   2.6kbits/s speed=0.00388x elapsed=0:00:34.37    \nframe=   10 fps=0.3 q=38.2 size=       0KiB time=00:00:00.13 bitrate=   2.6kbits/s speed=0.00382x elapsed=0:00:34.92    \nframe=   10 fps=0.3 q=38.2 size=       0KiB time=00:00:00.13 bitrate=   2.6kbits/s speed=0.00375x elapsed=0:00:35.52    \nframe=   10 fps=0.3 q=38.2 size=       0KiB time=00:00:00.13 bitrate=   2.6kbits/s speed=0.00369x elapsed=0:00:36.09    \nframe=   11 fps=0.3 q=34.5 size=       0KiB time=00:00:00.13 bitrate=   2.6kbits/s speed=0.00364x elapsed=0:00:36.60    \nframe=   11 fps=0.3 q=34.5 size=       0KiB time=00:00:00.15 bitrate=   2.3kbits/s speed=0.00403x elapsed=0:00:37.19    \nframe=   11 fps=0.3 q=34.5 size=       0KiB time=00:00:00.15 bitrate=   2.3kbits/s speed=0.00397x elapsed=0:00:37.75    \nframe=   11 fps=0.3 q=34.5 size=       0KiB time=00:00:00.15 bitrate=   2.3kbits/s speed=0.00392x elapsed=0:00:38.29    \nframe=   12 fps=0.3 q=39.8 size=       0KiB time=00:00:00.16 bitrate=   2.1kbits/s speed=0.00429x elapsed=0:00:38.81    \nframe=   12 fps=0.3 q=39.8 size=       0KiB time=00:00:00.16 bitrate=   2.1kbits/s speed=0.00424x elapsed=0:00:39.35    \nframe=   12 fps=0.3 q=39.8 size=       0KiB time=00:00:00.16 bitrate=   2.1kbits/s speed=0.00418x elapsed=0:00:39.89    \nframe=   13 fps=0.3 q=39.7 size=       0KiB time=00:00:00.18 bitrate=   1.9kbits/s speed=0.00453x elapsed=0:00:40.45    \nframe=   13 fps=0.3 q=39.7 size=       0KiB time=00:00:00.18 bitrate=   1.9kbits/s speed=0.00447x elapsed=0:00:40.99    \nframe=   13 fps=0.3 q=39.7 size=       0KiB time=00:00:00.18 bitrate=   1.9kbits/s speed=0.00441x elapsed=0:00:41.55    \nframe=   13 fps=0.3 q=39.7 size=       0KiB time=00:00:00.18 bitrate=   1.9kbits/s speed=0.00435x elapsed=0:00:42.10    \nframe=   13 fps=0.3 q=39.7 size=       0KiB time=00:00:00.18 bitrate=   1.9kbits/s speed=0.0043x elapsed=0:00:42.64    \nframe=   14 fps=0.3 q=40.9 size=       0KiB time=00:00:00.20 bitrate=   1.8kbits/s speed=0.00463x elapsed=0:00:43.18    \nframe=   15 fps=0.3 q=41.0 size=       0KiB time=00:00:00.21 bitrate=   1.6kbits/s speed=0.00496x elapsed=0:00:43.71    \nframe=   15 fps=0.3 q=41.0 size=       0KiB time=00:00:00.21 bitrate=   1.6kbits/s speed=0.00489x elapsed=0:00:44.28    \nframe=   15 fps=0.3 q=41.0 size=       0KiB time=00:00:00.21 bitrate=   1.6kbits/s speed=0.00483x elapsed=0:00:44.88    \nframe=   15 fps=0.3 q=41.0 size=       0KiB time=00:00:00.21 bitrate=   1.6kbits/s speed=0.00477x elapsed=0:00:45.46    \nframe=   15 fps=0.3 q=41.0 size=       0KiB time=00:00:00.21 bitrate=   1.6kbits/s speed=0.00471x elapsed=0:00:46.02    \nframe=   16 fps=0.3 q=34.6 size=       0KiB time=00:00:00.23 bitrate=   1.5kbits/s speed=0.00501x elapsed=0:00:46.56    \nframe=   16 fps=0.3 q=34.6 size=       0KiB time=00:00:00.23 bitrate=   1.5kbits/s speed=0.00495x elapsed=0:00:47.11    \nframe=   17 fps=0.4 q=40.0 size=       0KiB time=00:00:00.25 bitrate=   1.4kbits/s speed=0.00525x elapsed=0:00:47.63    \nframe=   17 fps=0.4 q=40.0 size=       0KiB time=00:00:00.25 bitrate=   1.4kbits/s speed=0.00519x elapsed=0:00:48.15    \nframe=   18 fps=0.4 q=41.0 size=       0KiB time=00:00:00.26 bitrate=   1.3kbits/s speed=0.00548x elapsed=0:00:48.67    \nframe=   18 fps=0.4 q=41.0 size=       0KiB time=00:00:00.26 bitrate=   1.3kbits/s speed=0.00542x elapsed=0:00:49.19    \nframe=   18 fps=0.4 q=41.0 size=       0KiB time=00:00:00.26 bitrate=   1.3kbits/s speed=0.00536x elapsed=0:00:49.72    \nframe=   18 fps=0.4 q=41.0 size=       0KiB time=00:00:00.26 bitrate=   1.3kbits/s speed=0.00531x elapsed=0:00:50.23    \nframe=   19 fps=0.4 q=39.9 size=       0KiB time=00:00:00.26 bitrate=   1.3kbits/s speed=0.00525x elapsed=0:00:50.77    \nframe=   19 fps=0.4 q=39.9 size=       0KiB time=00:00:00.28 bitrate=   1.2kbits/s speed=0.00552x elapsed=0:00:51.29    \nframe=   20 fps=0.4 q=39.9 size=       0KiB time=00:00:00.30 bitrate=   1.2kbits/s speed=0.00579x elapsed=0:00:51.82    \nframe=   21 fps=0.4 q=33.2 size=       0KiB time=00:00:00.31 bitrate=   1.1kbits/s speed=0.00605x elapsed=0:00:52.36    \nframe=   21 fps=0.4 q=33.2 size=       0KiB time=00:00:00.31 bitrate=   1.1kbits/s speed=0.00599x elapsed=0:00:52.89    \nframe=   22 fps=0.4 q=38.9 size=       0KiB time=00:00:00.33 bitrate=   1.1kbits/s speed=0.00624x elapsed=0:00:53.41    \nframe=   22 fps=0.4 q=38.9 size=       0KiB time=00:00:00.33 bitrate=   1.1kbits/s speed=0.00618x elapsed=0:00:53.94    \nframe=   22 fps=0.4 q=38.9 size=       0KiB time=00:00:00.33 bitrate=   1.1kbits/s speed=0.00612x elapsed=0:00:54.46    \nframe=   22 fps=0.4 q=38.9 size=       0KiB time=00:00:00.33 bitrate=   1.1kbits/s speed=0.00606x elapsed=0:00:54.99    \nframe=   22 fps=0.4 q=38.9 size=       0KiB time=00:00:00.33 bitrate=   1.1kbits/s speed=0.00601x elapsed=0:00:55.50    \nframe=   23 fps=0.4 q=38.9 size=       0KiB time=00:00:00.35 bitrate=   1.0kbits/s speed=0.00625x elapsed=0:00:56.03    \nframe=   23 fps=0.4 q=38.9 size=       0KiB time=00:00:00.35 bitrate=   1.0kbits/s speed=0.00619x elapsed=0:00:56.55    \nframe=   24 fps=0.4 q=33.3 size=       0KiB time=00:00:00.36 bitrate=   1.0kbits/s speed=0.00643x elapsed=0:00:57.05    \nframe=   24 fps=0.4 q=33.3 size=       0KiB time=00:00:00.36 bitrate=   1.0kbits/s speed=0.00637x elapsed=0:00:57.58    \nframe=   24 fps=0.4 q=33.3 size=       0KiB time=00:00:00.36 bitrate=   1.0kbits/s speed=0.00631x elapsed=0:00:58.10    \nframe=   24 fps=0.4 q=33.3 size=       0KiB time=00:00:00.36 bitrate=   1.0kbits/s speed=0.00625x elapsed=0:00:58.64    \nframe=   24 fps=0.4 q=33.3 size=       0KiB time=00:00:00.36 bitrate=   1.0kbits/s speed=0.0062x elapsed=0:00:59.18    \nframe=   25 fps=0.4 q=38.7 size=       0KiB time=00:00:00.38 bitrate=   0.9kbits/s speed=0.00642x elapsed=0:00:59.68    \nframe=   25 fps=0.4 q=38.7 size=       0KiB time=00:00:00.38 bitrate=   0.9kbits/s speed=0.00637x elapsed=0:01:00.20    \nframe=   25 fps=0.4 q=38.7 size=       0KiB time=00:00:00.38 bitrate=   0.9kbits/s speed=0.00631x elapsed=0:01:00.73    \nframe=   26 fps=0.4 q=39.9 size=       0KiB time=00:00:00.40 bitrate=   0.9kbits/s speed=0.00653x elapsed=0:01:01.26    \nframe=   27 fps=0.4 q=33.3 size=       0KiB time=00:00:00.41 bitrate=   0.8kbits/s speed=0.00674x elapsed=0:01:01.78    \nframe=   27 fps=0.4 q=33.3 size=       0KiB time=00:00:00.41 bitrate=   0.8kbits/s speed=0.00669x elapsed=0:01:02.30    \nframe=   27 fps=0.4 q=33.3 size=       0KiB time=00:00:00.41 bitrate=   0.8kbits/s speed=0.00663x elapsed=0:01:02.81    \nframe=   28 fps=0.4 q=35.5 size=       0KiB time=00:00:00.43 bitrate=   0.8kbits/s speed=0.00684x elapsed=0:01:03.33    \nframe=   28 fps=0.4 q=35.5 size=       0KiB time=00:00:00.43 bitrate=   0.8kbits/s speed=0.00679x elapsed=0:01:03.85    \nframe=   28 fps=0.4 q=35.5 size=       0KiB time=00:00:00.43 bitrate=   0.8kbits/s speed=0.00673x elapsed=0:01:04.37    \nframe=   29 fps=0.4 q=39.0 size=       0KiB time=00:00:00.45 bitrate=   0.8kbits/s speed=0.00693x elapsed=0:01:04.90    \nframe=   29 fps=0.4 q=39.0 size=       0KiB time=00:00:00.45 bitrate=   0.8kbits/s speed=0.00688x elapsed=0:01:05.41    \nframe=   30 fps=0.5 q=32.6 size=       0KiB time=00:00:00.46 bitrate=   0.8kbits/s speed=0.00708x elapsed=0:01:05.93    \nframe=   31 fps=0.5 q=38.9 size=       0KiB time=00:00:00.48 bitrate=   0.7kbits/s speed=0.00727x elapsed=0:01:06.47    \nframe=   31 fps=0.5 q=38.9 size=       0KiB time=00:00:00.48 bitrate=   0.7kbits/s speed=0.00722x elapsed=0:01:06.98    \nframe=   31 fps=0.5 q=38.9 size=       0KiB time=00:00:00.48 bitrate=   0.7kbits/s speed=0.00716x elapsed=0:01:07.50    \nframe=   31 fps=0.5 q=38.9 size=       0KiB time=00:00:00.48 bitrate=   0.7kbits/s speed=0.0071x elapsed=0:01:08.03    \nframe=   31 fps=0.5 q=38.9 size=       0KiB time=00:00:00.48 bitrate=   0.7kbits/s speed=0.00705x elapsed=0:01:08.55    \nframe=   32 fps=0.5 q=32.1 size=       0KiB time=00:00:00.50 bitrate=   0.7kbits/s speed=0.00724x elapsed=0:01:09.09    \nframe=   33 fps=0.5 q=36.9 size=       0KiB time=00:00:00.51 bitrate=   0.7kbits/s speed=0.00742x elapsed=0:01:09.62    \nframe=   33 fps=0.5 q=36.9 size=       0KiB time=00:00:00.51 bitrate=   0.7kbits/s speed=0.00737x elapsed=0:01:10.14    \nframe=   33 fps=0.5 q=36.9 size=       0KiB time=00:00:00.51 bitrate=   0.7kbits/s speed=0.00731x elapsed=0:01:10.67    \nframe=   34 fps=0.5 q=31.4 size=       0KiB time=00:00:00.53 bitrate=   0.7kbits/s speed=0.00749x elapsed=0:01:11.18    \nframe=   35 fps=0.5 q=35.6 size=       0KiB time=00:00:00.55 bitrate=   0.6kbits/s speed=0.00767x elapsed=0:01:11.72    \nframe=   35 fps=0.5 q=35.6 size=       0KiB time=00:00:00.55 bitrate=   0.6kbits/s speed=0.00761x elapsed=0:01:12.25    \nframe=   35 fps=0.5 q=35.6 size=       0KiB time=00:00:00.55 bitrate=   0.6kbits/s speed=0.00756x elapsed=0:01:12.77    \nframe=   35 fps=0.5 q=35.6 size=       0KiB time=00:00:00.55 bitrate=   0.6kbits/s speed=0.0075x elapsed=0:01:13.32    \nframe=   36 fps=0.5 q=36.8 size=       0KiB time=00:00:00.56 bitrate=   0.6kbits/s speed=0.00767x elapsed=0:01:13.86    \nframe=   37 fps=0.5 q=35.7 size=       0KiB time=00:00:00.58 bitrate=   0.6kbits/s speed=0.00784x elapsed=0:01:14.37    \nframe=   37 fps=0.5 q=35.7 size=       0KiB time=00:00:00.58 bitrate=   0.6kbits/s speed=0.00779x elapsed=0:01:14.89    \nframe=   37 fps=0.5 q=35.7 size=       0KiB time=00:00:00.58 bitrate=   0.6kbits/s speed=0.00773x elapsed=0:01:15.46    \nframe=   37 fps=0.5 q=35.7 size=       0KiB time=00:00:00.58 bitrate=   0.6kbits/s speed=0.00767x elapsed=0:01:16.01    \nframe=   37 fps=0.5 q=35.7 size=       0KiB time=00:00:00.58 bitrate=   0.6kbits/s speed=0.00762x elapsed=0:01:16.53    \nframe=   38 fps=0.5 q=31.3 size=       0KiB time=00:00:00.60 bitrate=   0.6kbits/s speed=0.00779x elapsed=0:01:17.05    \nframe=   40 fps=0.5 q=35.9 size=       0KiB time=00:00:00.63 bitrate=   0.6kbits/s speed=0.00816x elapsed=0:01:17.56    \nframe=   40 fps=0.5 q=35.9 size=       0KiB time=00:00:00.63 bitrate=   0.6kbits/s speed=0.00811x elapsed=0:01:18.08    \nframe=   40 fps=0.5 q=35.9 size=       0KiB time=00:00:00.63 bitrate=   0.6kbits/s speed=0.00806x elapsed=0:01:18.60    \nframe=   40 fps=0.5 q=35.9 size=       0KiB time=00:00:00.63 bitrate=   0.6kbits/s speed=0.008x elapsed=0:01:19.12    \nframe=   41 fps=0.5 q=35.5 size=       0KiB time=00:00:00.65 bitrate=   0.5kbits/s speed=0.00816x elapsed=0:01:19.63    \nframe=   41 fps=0.5 q=35.5 size=       0KiB time=00:00:00.65 bitrate=   0.5kbits/s speed=0.00811x elapsed=0:01:20.16    \nframe=   42 fps=0.5 q=35.4 size=       0KiB time=00:00:00.66 bitrate=   0.5kbits/s speed=0.00826x elapsed=0:01:20.70    \nframe=   42 fps=0.5 q=35.4 size=       0KiB time=00:00:00.66 bitrate=   0.5kbits/s speed=0.00821x elapsed=0:01:21.24    \nframe=   43 fps=0.5 q=30.3 size=       0KiB time=00:00:00.68 bitrate=   0.5kbits/s speed=0.00836x elapsed=0:01:21.76    \nframe=   43 fps=0.5 q=30.3 size=       0KiB time=00:00:00.68 bitrate=   0.5kbits/s speed=0.0083x elapsed=0:01:22.31    \nframe=   43 fps=0.5 q=30.3 size=       0KiB time=00:00:00.68 bitrate=   0.5kbits/s speed=0.00825x elapsed=0:01:22.82    \nframe=   44 fps=0.5 q=35.1 size=       0KiB time=00:00:00.70 bitrate=   0.5kbits/s speed=0.0084x elapsed=0:01:23.35    \nframe=   44 fps=0.5 q=35.1 size=       0KiB time=00:00:00.70 bitrate=   0.5kbits/s speed=0.00835x elapsed=0:01:23.87    \nframe=   44 fps=0.5 q=35.1 size=       0KiB time=00:00:00.70 bitrate=   0.5kbits/s speed=0.00829x elapsed=0:01:24.41    \nframe=   44 fps=0.5 q=35.1 size=       0KiB time=00:00:00.70 bitrate=   0.5kbits/s speed=0.00824x elapsed=0:01:24.96    \nframe=   45 fps=0.5 q=35.9 size=       0KiB time=00:00:00.71 bitrate=   0.5kbits/s speed=0.00838x elapsed=0:01:25.48    \nframe=   45 fps=0.5 q=35.9 size=       0KiB time=00:00:00.71 bitrate=   0.5kbits/s speed=0.00833x elapsed=0:01:25.99    \nframe=   45 fps=0.5 q=35.9 size=       0KiB time=00:00:00.71 bitrate=   0.5kbits/s speed=0.00828x elapsed=0:01:26.53    \nframe=   46 fps=0.5 q=34.7 size=       0KiB time=00:00:00.73 bitrate=   0.5kbits/s speed=0.00842x elapsed=0:01:27.08    \nframe=   46 fps=0.5 q=34.7 size=       0KiB time=00:00:00.73 bitrate=   0.5kbits/s speed=0.00837x elapsed=0:01:27.60    \nframe=   46 fps=0.5 q=34.7 size=       0KiB time=00:00:00.73 bitrate=   0.5kbits/s speed=0.00832x elapsed=0:01:28.15    \nframe=   46 fps=0.5 q=34.7 size=       0KiB time=00:00:00.73 bitrate=   0.5kbits/s speed=0.00827x elapsed=0:01:28.69    \nframe=   46 fps=0.5 q=34.7 size=       0KiB time=00:00:00.73 bitrate=   0.5kbits/s speed=0.00822x elapsed=0:01:29.19    \nframe=   46 fps=0.5 q=34.7 size=       0KiB time=00:00:00.73 bitrate=   0.5kbits/s speed=0.00817x elapsed=0:01:29.72    \nframe=   47 fps=0.5 q=30.4 size=       0KiB time=00:00:00.75 bitrate=   0.5kbits/s speed=0.00831x elapsed=0:01:30.25    \nframe=   48 fps=0.5 q=33.7 size=       0KiB time=00:00:00.76 bitrate=   0.5kbits/s speed=0.00844x elapsed=0:01:30.78    \nframe=   48 fps=0.5 q=33.7 size=       0KiB time=00:00:00.76 bitrate=   0.5kbits/s speed=0.00839x elapsed=0:01:31.34    \nframe=   48 fps=0.5 q=33.7 size=       0KiB time=00:00:00.76 bitrate=   0.5kbits/s speed=0.00834x elapsed=0:01:31.89    \nframe=   49 fps=0.5 q=34.6 size=       0KiB time=00:00:00.78 bitrate=   0.4kbits/s speed=0.00848x elapsed=0:01:32.41    \nframe=   49 fps=0.5 q=34.6 size=       0KiB time=00:00:00.78 bitrate=   0.4kbits/s speed=0.00843x elapsed=0:01:32.95    \nframe=   50 fps=0.5 q=34.9 size=       0KiB time=00:00:00.80 bitrate=   0.4kbits/s speed=0.00856x elapsed=0:01:33.49    \nframe=   50 fps=0.5 q=34.9 size=       0KiB time=00:00:00.80 bitrate=   0.4kbits/s speed=0.00851x elapsed=0:01:34.04    \nframe=   51 fps=0.5 q=30.9 size=       0KiB time=00:00:00.81 bitrate=   0.4kbits/s speed=0.00864x elapsed=0:01:34.56    \nframe=   51 fps=0.5 q=30.9 size=       0KiB time=00:00:00.81 bitrate=   0.4kbits/s speed=0.00859x elapsed=0:01:35.10    \nframe=   53 fps=0.6 q=34.7 size=       0KiB time=00:00:00.85 bitrate=   0.4kbits/s speed=0.00889x elapsed=0:01:35.63    \nframe=   53 fps=0.6 q=34.7 size=       0KiB time=00:00:00.85 bitrate=   0.4kbits/s speed=0.00884x elapsed=0:01:36.15    \nframe=   53 fps=0.5 q=34.7 size=       0KiB time=00:00:00.85 bitrate=   0.4kbits/s speed=0.00879x elapsed=0:01:36.67    \nframe=   53 fps=0.5 q=34.7 size=       0KiB time=00:00:00.85 bitrate=   0.4kbits/s speed=0.00874x elapsed=0:01:37.22    \nframe=   53 fps=0.5 q=34.7 size=       0KiB time=00:00:00.85 bitrate=   0.4kbits/s speed=0.00869x elapsed=0:01:37.76    \nframe=   53 fps=0.5 q=34.7 size=       0KiB time=00:00:00.85 bitrate=   0.4kbits/s speed=0.00865x elapsed=0:01:38.28    \nframe=   54 fps=0.5 q=34.5 size=       0KiB time=00:00:00.86 bitrate=   0.4kbits/s speed=0.00877x elapsed=0:01:38.79    \nframe=   55 fps=0.6 q=34.8 size=       0KiB time=00:00:00.88 bitrate=   0.4kbits/s speed=0.00889x elapsed=0:01:39.32    \nframe=   55 fps=0.6 q=34.8 size=       0KiB time=00:00:00.88 bitrate=   0.4kbits/s speed=0.00885x elapsed=0:01:39.86    \nframe=   55 fps=0.5 q=34.8 size=       0KiB time=00:00:00.88 bitrate=   0.4kbits/s speed=0.0088x elapsed=0:01:40.39    \nframe=   55 fps=0.5 q=34.8 size=       0KiB time=00:00:00.88 bitrate=   0.4kbits/s speed=0.00875x elapsed=0:01:40.92    \nframe=   56 fps=0.6 q=31.0 size=       0KiB time=00:00:00.90 bitrate=   0.4kbits/s speed=0.00887x elapsed=0:01:41.47    \nframe=   57 fps=0.6 q=33.4 size=       0KiB time=00:00:00.91 bitrate=   0.4kbits/s speed=0.00899x elapsed=0:01:41.99    \nframe=   57 fps=0.6 q=33.4 size=       0KiB time=00:00:00.91 bitrate=   0.4kbits/s speed=0.00894x elapsed=0:01:42.52    \nframe=   57 fps=0.6 q=33.4 size=       0KiB time=00:00:00.91 bitrate=   0.4kbits/s speed=0.0089x elapsed=0:01:43.02    \nframe=   57 fps=0.6 q=33.4 size=       0KiB time=00:00:00.91 bitrate=   0.4kbits/s speed=0.00885x elapsed=0:01:43.54    \nframe=   57 fps=0.5 q=33.4 size=       0KiB time=00:00:00.91 bitrate=   0.4kbits/s speed=0.00881x elapsed=0:01:44.06    \nframe=   58 fps=0.6 q=34.7 size=       0KiB time=00:00:00.93 bitrate=   0.4kbits/s speed=0.00893x elapsed=0:01:44.57    \nframe=   59 fps=0.6 q=34.8 size=       0KiB time=00:00:00.95 bitrate=   0.4kbits/s speed=0.00904x elapsed=0:01:45.08    \nframe=   60 fps=0.6 q=31.2 size=       0KiB time=00:00:00.96 bitrate=   0.4kbits/s speed=0.00915x elapsed=0:01:45.61    \nframe=   60 fps=0.6 q=31.2 size=       0KiB time=00:00:00.96 bitrate=   0.4kbits/s speed=0.00911x elapsed=0:01:46.15    \nframe=   60 fps=0.6 q=31.2 size=       0KiB time=00:00:00.96 bitrate=   0.4kbits/s speed=0.00906x elapsed=0:01:46.72    \nframe=   61 fps=0.6 q=34.3 size=       0KiB time=00:00:00.98 bitrate=   0.4kbits/s speed=0.00917x elapsed=0:01:47.24    \nframe=   61 fps=0.6 q=34.3 size=       0KiB time=00:00:00.98 bitrate=   0.4kbits/s speed=0.00912x elapsed=0:01:47.79    \nframe=   61 fps=0.6 q=34.3 size=       0KiB time=00:00:00.98 bitrate=   0.4kbits/s speed=0.00908x elapsed=0:01:48.34    \nframe=   61 fps=0.6 q=34.3 size=       0KiB time=00:00:00.98 bitrate=   0.4kbits/s speed=0.00903x elapsed=0:01:48.86    \nframe=   61 fps=0.6 q=34.3 size=       0KiB time=00:00:00.98 bitrate=   0.4kbits/s speed=0.00899x elapsed=0:01:49.39    \nframe=   61 fps=0.6 q=34.3 size=       0KiB time=00:00:00.98 bitrate=   0.4kbits/s speed=0.00894x elapsed=0:01:49.94    \nframe=   62 fps=0.6 q=35.9 size=       0KiB time=00:00:01.00 bitrate=   0.4kbits/s speed=0.00905x elapsed=0:01:50.46    \nframe=   62 fps=0.6 q=35.9 size=       0KiB time=00:00:01.00 bitrate=   0.4kbits/s speed=0.00901x elapsed=0:01:50.98    \nframe=   63 fps=0.6 q=36.0 size=       0KiB time=00:00:01.01 bitrate=   0.3kbits/s speed=0.00912x elapsed=0:01:51.51    \nframe=   64 fps=0.6 q=31.1 size=       0KiB time=00:00:01.03 bitrate=   0.3kbits/s speed=0.00922x elapsed=0:01:52.02    \nframe=   65 fps=0.6 q=35.9 size=       0KiB time=00:00:01.05 bitrate=   0.3kbits/s speed=0.00933x elapsed=0:01:52.54    \nframe=   66 fps=0.6 q=35.9 size=       0KiB time=00:00:01.06 bitrate=   0.3kbits/s speed=0.00943x elapsed=0:01:53.06    \nframe=   66 fps=0.6 q=35.9 size=       0KiB time=00:00:01.06 bitrate=   0.3kbits/s speed=0.00939x elapsed=0:01:53.57    \nframe=   67 fps=0.6 q=36.0 size=       0KiB time=00:00:01.08 bitrate=   0.3kbits/s speed=0.0095x elapsed=0:01:54.09    \nframe=   68 fps=0.6 q=35.8 size=       0KiB time=00:00:01.10 bitrate=   0.3kbits/s speed=0.0096x elapsed=0:01:54.61    \nframe=   70 fps=0.6 q=35.5 size=       0KiB time=00:00:01.13 bitrate=   0.3kbits/s speed=0.00984x elapsed=0:01:55.13    \nframe=   70 fps=0.6 q=35.5 size=       0KiB time=00:00:01.13 bitrate=   0.3kbits/s speed=0.0098x elapsed=0:01:55.63    \nframe=   71 fps=0.6 q=35.6 size=       0KiB time=00:00:01.15 bitrate=   0.3kbits/s speed=0.0099x elapsed=0:01:56.15    \nframe=   71 fps=0.6 q=35.6 size=       0KiB time=00:00:01.15 bitrate=   0.3kbits/s speed=0.00986x elapsed=0:01:56.67    \nframe=   73 fps=0.6 q=30.4 size=       0KiB time=00:00:01.18 bitrate=   0.3kbits/s speed=0.0101x elapsed=0:01:57.18    \nframe=   74 fps=0.6 q=32.9 size=     256KiB time=00:00:01.20 bitrate=1747.9kbits/s speed=0.0102x elapsed=0:01:57.70    \nframe=   75 fps=0.6 q=35.7 size=     256KiB time=00:00:01.21 bitrate=1724.0kbits/s speed=0.0103x elapsed=0:01:58.22    \nframe=   75 fps=0.6 q=35.7 size=     256KiB time=00:00:01.21 bitrate=1724.0kbits/s speed=0.0102x elapsed=0:01:58.73    \nframe=   76 fps=0.6 q=36.0 size=     256KiB time=00:00:01.23 bitrate=1700.7kbits/s speed=0.0103x elapsed=0:01:59.25    \nframe=   77 fps=0.6 q=35.9 size=     256KiB time=00:00:01.25 bitrate=1678.0kbits/s speed=0.0104x elapsed=0:01:59.77    \nframe=   79 fps=0.7 q=34.7 size=     256KiB time=00:00:01.28 bitrate=1634.4kbits/s speed=0.0107x elapsed=0:02:00.29    \nframe=   80 fps=0.7 q=36.8 size=     256KiB time=00:00:01.30 bitrate=1613.5kbits/s speed=0.0108x elapsed=0:02:00.81    \nframe=   80 fps=0.7 q=36.8 size=     256KiB time=00:00:01.30 bitrate=1613.5kbits/s speed=0.0107x elapsed=0:02:01.32    \nframe=   81 fps=0.7 q=36.7 size=     256KiB time=00:00:01.31 bitrate=1593.0kbits/s speed=0.0108x elapsed=0:02:01.84    \nframe=   82 fps=0.7 q=36.9 size=     256KiB time=00:00:01.33 bitrate=1573.1kbits/s speed=0.0109x elapsed=0:02:02.36    \nframe=   83 fps=0.7 q=30.5 size=     256KiB time=00:00:01.35 bitrate=1553.7kbits/s speed=0.011x elapsed=0:02:02.87    \nframe=   85 fps=0.7 q=37.9 size=     256KiB time=00:00:01.38 bitrate=1516.3kbits/s speed=0.0112x elapsed=0:02:03.39    \nframe=   85 fps=0.7 q=37.9 size=     256KiB time=00:00:01.38 bitrate=1516.3kbits/s speed=0.0112x elapsed=0:02:03.91    \nframe=   86 fps=0.7 q=37.0 size=     256KiB time=00:00:01.40 bitrate=1498.2kbits/s speed=0.0113x elapsed=0:02:04.43    \nframe=   87 fps=0.7 q=37.0 size=     256KiB time=00:00:01.41 bitrate=1480.6kbits/s speed=0.0113x elapsed=0:02:04.95    \nframe=   88 fps=0.7 q=30.5 size=     256KiB time=00:00:01.43 bitrate=1463.4kbits/s speed=0.0114x elapsed=0:02:05.46    \nframe=   90 fps=0.7 q=37.0 size=     256KiB time=00:00:01.46 bitrate=1430.1kbits/s speed=0.0116x elapsed=0:02:05.98    \nframe=   91 fps=0.7 q=37.0 size=     256KiB time=00:00:01.48 bitrate=1414.0kbits/s speed=0.0117x elapsed=0:02:06.50    \nframe=   92 fps=0.7 q=37.1 size=     256KiB time=00:00:01.50 bitrate=1398.3kbits/s speed=0.0118x elapsed=0:02:07.01    \nframe=   93 fps=0.7 q=30.1 size=     256KiB time=00:00:01.51 bitrate=1383.0kbits/s speed=0.0119x elapsed=0:02:07.53    \nframe=   95 fps=0.7 q=38.1 size=     256KiB time=00:00:01.55 bitrate=1353.2kbits/s speed=0.0121x elapsed=0:02:08.05    \nframe=   96 fps=0.7 q=29.6 size=     256KiB time=00:00:01.56 bitrate=1338.8kbits/s speed=0.0122x elapsed=0:02:08.55    \nframe=   97 fps=0.8 q=35.9 size=     256KiB time=00:00:01.58 bitrate=1324.7kbits/s speed=0.0123x elapsed=0:02:09.08    \nframe=   98 fps=0.8 q=36.0 size=     256KiB time=00:00:01.60 bitrate=1310.9kbits/s speed=0.0123x elapsed=0:02:09.60    \nframe=   98 fps=0.8 q=36.0 size=     256KiB time=00:00:01.60 bitrate=1310.9kbits/s speed=0.0123x elapsed=0:02:10.10    \nframe=   99 fps=0.8 q=35.0 size=     256KiB time=00:00:01.61 bitrate=1297.4kbits/s speed=0.0124x elapsed=0:02:10.62    \nframe=  101 fps=0.8 q=30.1 size=     256KiB time=00:00:01.65 bitrate=1271.2kbits/s speed=0.0126x elapsed=0:02:11.14    \nframe=  103 fps=0.8 q=35.9 size=     256KiB time=00:00:01.68 bitrate=1246.0kbits/s speed=0.0128x elapsed=0:02:11.66    \nframe=  103 fps=0.8 q=35.9 size=     256KiB time=00:00:01.68 bitrate=1246.0kbits/s speed=0.0127x elapsed=0:02:12.18    \nframe=  103 fps=0.8 q=35.9 size=     256KiB time=00:00:01.68 bitrate=1246.0kbits/s speed=0.0127x elapsed=0:02:12.70    \nframe=  104 fps=0.8 q=36.0 size=     256KiB time=00:00:01.70 bitrate=1233.8kbits/s speed=0.0128x elapsed=0:02:13.21    \nframe=  105 fps=0.8 q=36.0 size=     256KiB time=00:00:01.71 bitrate=1221.8kbits/s speed=0.0128x elapsed=0:02:13.73    \nframe=  105 fps=0.8 q=36.0 size=     256KiB time=00:00:01.71 bitrate=1221.8kbits/s speed=0.0128x elapsed=0:02:14.24    \nframe=  106 fps=0.8 q=30.0 size=     256KiB time=00:00:01.73 bitrate=1210.1kbits/s speed=0.0129x elapsed=0:02:14.77    \nframe=  106 fps=0.8 q=30.0 size=     256KiB time=00:00:01.73 bitrate=1210.1kbits/s speed=0.0128x elapsed=0:02:15.30    \nframe=  107 fps=0.8 q=30.5 size=     256KiB time=00:00:01.75 bitrate=1198.6kbits/s speed=0.0129x elapsed=0:02:15.81    \nframe=  108 fps=0.8 q=36.9 size=     256KiB time=00:00:01.76 bitrate=1187.3kbits/s speed=0.013x elapsed=0:02:16.35    \nframe=  108 fps=0.8 q=36.9 size=     256KiB time=00:00:01.76 bitrate=1187.3kbits/s speed=0.0129x elapsed=0:02:16.87    \nframe=  108 fps=0.8 q=36.9 size=     256KiB time=00:00:01.76 bitrate=1187.3kbits/s speed=0.0129x elapsed=0:02:17.39    \nframe=  108 fps=0.8 q=36.9 size=     256KiB time=00:00:01.76 bitrate=1187.3kbits/s speed=0.0128x elapsed=0:02:17.91    \nframe=  109 fps=0.8 q=37.0 size=     256KiB time=00:00:01.78 bitrate=1176.2kbits/s speed=0.0129x elapsed=0:02:18.43    \nframe=  110 fps=0.8 q=37.0 size=     256KiB time=00:00:01.80 bitrate=1165.3kbits/s speed=0.013x elapsed=0:02:18.97    \nframe=  111 fps=0.8 q=30.3 size=     256KiB time=00:00:01.81 bitrate=1154.6kbits/s speed=0.013x elapsed=0:02:19.53    \nframe=  112 fps=0.8 q=36.9 size=     256KiB time=00:00:01.83 bitrate=1144.1kbits/s speed=0.0131x elapsed=0:02:20.06    \nframe=  113 fps=0.8 q=38.0 size=     256KiB time=00:00:01.85 bitrate=1133.8kbits/s speed=0.0132x elapsed=0:02:20.60    \nframe=  113 fps=0.8 q=38.0 size=     256KiB time=00:00:01.85 bitrate=1133.8kbits/s speed=0.0131x elapsed=0:02:21.12    \nframe=  113 fps=0.8 q=38.0 size=     256KiB time=00:00:01.85 bitrate=1133.8kbits/s speed=0.0131x elapsed=0:02:21.64    \nframe=  113 fps=0.8 q=38.0 size=     256KiB time=00:00:01.85 bitrate=1133.8kbits/s speed=0.013x elapsed=0:02:22.16    \nframe=  114 fps=0.8 q=38.0 size=     256KiB time=00:00:01.86 bitrate=1123.7kbits/s speed=0.0131x elapsed=0:02:22.68    \nframe=  114 fps=0.8 q=38.0 size=     256KiB time=00:00:01.86 bitrate=1123.7kbits/s speed=0.013x elapsed=0:02:23.21    \nframe=  114 fps=0.8 q=38.0 size=     256KiB time=00:00:01.86 bitrate=1123.7kbits/s speed=0.013x elapsed=0:02:23.76    \nframe=  115 fps=0.8 q=38.0 size=     256KiB time=00:00:01.88 bitrate=1113.7kbits/s speed=0.0131x elapsed=0:02:24.28    \nframe=  116 fps=0.8 q=30.6 size=     256KiB time=00:00:01.90 bitrate=1103.9kbits/s speed=0.0131x elapsed=0:02:24.80    \nframe=  117 fps=0.8 q=37.0 size=     256KiB time=00:00:01.91 bitrate=1094.3kbits/s speed=0.0132x elapsed=0:02:25.31    \nframe=  117 fps=0.8 q=37.0 size=     256KiB time=00:00:01.91 bitrate=1094.3kbits/s speed=0.0131x elapsed=0:02:25.84    \nframe=  118 fps=0.8 q=38.0 size=     256KiB time=00:00:01.93 bitrate=1084.9kbits/s speed=0.0132x elapsed=0:02:26.36    \nframe=  118 fps=0.8 q=38.0 size=     256KiB time=00:00:01.93 bitrate=1084.9kbits/s speed=0.0132x elapsed=0:02:26.87    \nframe=  119 fps=0.8 q=37.0 size=     256KiB time=00:00:01.95 bitrate=1075.6kbits/s speed=0.0132x elapsed=0:02:27.39    \nframe=  120 fps=0.8 q=37.0 size=     256KiB time=00:00:01.96 bitrate=1066.5kbits/s speed=0.0133x elapsed=0:02:27.91    \nframe=  121 fps=0.8 q=30.4 size=     256KiB time=00:00:01.98 bitrate=1057.6kbits/s speed=0.0134x elapsed=0:02:28.43    \nframe=  122 fps=0.8 q=36.9 size=     256KiB time=00:00:02.00 bitrate=1048.8kbits/s speed=0.0134x elapsed=0:02:28.95    \nframe=  122 fps=0.8 q=36.9 size=     256KiB time=00:00:02.00 bitrate=1048.8kbits/s speed=0.0134x elapsed=0:02:29.47    \nframe=  123 fps=0.8 q=38.0 size=     256KiB time=00:00:02.01 bitrate=1040.1kbits/s speed=0.0134x elapsed=0:02:29.98    \nframe=  123 fps=0.8 q=38.0 size=     256KiB time=00:00:02.01 bitrate=1040.1kbits/s speed=0.0134x elapsed=0:02:30.51    \nframe=  123 fps=0.8 q=38.0 size=     256KiB time=00:00:02.01 bitrate=1040.1kbits/s speed=0.0134x elapsed=0:02:31.03    \nframe=  123 fps=0.8 q=38.0 size=     256KiB time=00:00:02.01 bitrate=1040.1kbits/s speed=0.0133x elapsed=0:02:31.55    \nframe=  125 fps=0.8 q=36.0 size=     256KiB time=00:00:02.05 bitrate=1023.2kbits/s speed=0.0135x elapsed=0:02:32.08    \nframe=  125 fps=0.8 q=36.0 size=     256KiB time=00:00:02.05 bitrate=1023.2kbits/s speed=0.0134x elapsed=0:02:32.60    \nframe=  126 fps=0.8 q=29.5 size=     256KiB time=00:00:02.06 bitrate=1014.9kbits/s speed=0.0135x elapsed=0:02:33.13    \nframe=  127 fps=0.8 q=35.8 size=     256KiB time=00:00:02.08 bitrate=1006.8kbits/s speed=0.0136x elapsed=0:02:33.65    \nframe=  128 fps=0.8 q=36.0 size=     256KiB time=00:00:02.10 bitrate= 998.8kbits/s speed=0.0136x elapsed=0:02:34.18    \nframe=  128 fps=0.8 q=36.0 size=     256KiB time=00:00:02.10 bitrate= 998.8kbits/s speed=0.0136x elapsed=0:02:34.70    \nframe=  128 fps=0.8 q=36.0 size=     256KiB time=00:00:02.10 bitrate= 998.8kbits/s speed=0.0135x elapsed=0:02:35.22    \nframe=  129 fps=0.8 q=34.9 size=     256KiB time=00:00:02.11 bitrate= 990.9kbits/s speed=0.0136x elapsed=0:02:35.76    \nframe=  130 fps=0.8 q=35.0 size=     256KiB time=00:00:02.13 bitrate= 983.2kbits/s speed=0.0137x elapsed=0:02:36.27    \nframe=  130 fps=0.8 q=35.0 size=     256KiB time=00:00:02.13 bitrate= 983.2kbits/s speed=0.0136x elapsed=0:02:36.80    \nframe=  132 fps=0.8 q=34.7 size=     256KiB time=00:00:02.16 bitrate= 968.1kbits/s speed=0.0138x elapsed=0:02:37.32    \nframe=  133 fps=0.8 q=35.7 size=     256KiB time=00:00:02.18 bitrate= 960.7kbits/s speed=0.0138x elapsed=0:02:37.82    \nframe=  133 fps=0.8 q=35.7 size=     256KiB time=00:00:02.18 bitrate= 960.7kbits/s speed=0.0138x elapsed=0:02:38.34    \nframe=  135 fps=0.8 q=34.0 size=     256KiB time=00:00:02.21 bitrate= 946.2kbits/s speed=0.014x elapsed=0:02:38.86    \nframe=  135 fps=0.8 q=34.0 size=     256KiB time=00:00:02.21 bitrate= 946.2kbits/s speed=0.0139x elapsed=0:02:39.38    \nframe=  135 fps=0.8 q=34.0 size=     256KiB time=00:00:02.21 bitrate= 946.2kbits/s speed=0.0139x elapsed=0:02:39.93    \nframe=  135 fps=0.8 q=34.0 size=     256KiB time=00:00:02.21 bitrate= 946.2kbits/s speed=0.0138x elapsed=0:02:40.48    \nframe=  136 fps=0.8 q=30.1 size=     256KiB time=00:00:02.23 bitrate= 939.2kbits/s speed=0.0139x elapsed=0:02:41.01    \nframe=  136 fps=0.8 q=30.1 size=     256KiB time=00:00:02.23 bitrate= 939.2kbits/s speed=0.0138x elapsed=0:02:41.53    \nframe=  137 fps=0.8 q=33.4 size=     512KiB time=00:00:02.25 bitrate=1864.3kbits/s speed=0.0139x elapsed=0:02:42.04    \nframe=  138 fps=0.8 q=34.7 size=     512KiB time=00:00:02.26 bitrate=1850.6kbits/s speed=0.0139x elapsed=0:02:42.56    \nframe=  138 fps=0.8 q=34.7 size=     512KiB time=00:00:02.26 bitrate=1850.6kbits/s speed=0.0139x elapsed=0:02:43.10    \nframe=  138 fps=0.8 q=34.7 size=     512KiB time=00:00:02.26 bitrate=1850.6kbits/s speed=0.0139x elapsed=0:02:43.65    \nframe=  138 fps=0.8 q=34.7 size=     512KiB time=00:00:02.26 bitrate=1850.6kbits/s speed=0.0138x elapsed=0:02:44.17    \nframe=  139 fps=0.8 q=35.9 size=     512KiB time=00:00:02.28 bitrate=1837.1kbits/s speed=0.0139x elapsed=0:02:44.74    \nframe=  139 fps=0.8 q=35.9 size=     512KiB time=00:00:02.28 bitrate=1837.1kbits/s speed=0.0138x elapsed=0:02:45.28    \nframe=  139 fps=0.8 q=35.9 size=     512KiB time=00:00:02.28 bitrate=1837.1kbits/s speed=0.0138x elapsed=0:02:45.80    \nframe=  140 fps=0.8 q=30.3 size=     512KiB time=00:00:02.30 bitrate=1823.8kbits/s speed=0.0138x elapsed=0:02:46.33    \nframe=  140 fps=0.8 q=30.3 size=     512KiB time=00:00:02.30 bitrate=1823.8kbits/s speed=0.0138x elapsed=0:02:46.85    \nframe=  141 fps=0.8 q=34.8 size=     512KiB time=00:00:02.31 bitrate=1810.6kbits/s speed=0.0138x elapsed=0:02:47.40    \nframe=  141 fps=0.8 q=34.8 size=     512KiB time=00:00:02.31 bitrate=1810.6kbits/s speed=0.0138x elapsed=0:02:47.91    \nframe=  142 fps=0.8 q=36.0 size=     512KiB time=00:00:02.33 bitrate=1797.7kbits/s speed=0.0139x elapsed=0:02:48.43    \nframe=  142 fps=0.8 q=36.0 size=     512KiB time=00:00:02.33 bitrate=1797.7kbits/s speed=0.0138x elapsed=0:02:48.95    \nframe=  143 fps=0.8 q=36.0 size=     512KiB time=00:00:02.35 bitrate=1785.0kbits/s speed=0.0139x elapsed=0:02:49.49    \nframe=  143 fps=0.8 q=36.0 size=     512KiB time=00:00:02.35 bitrate=1785.0kbits/s speed=0.0138x elapsed=0:02:50.02    \nframe=  143 fps=0.8 q=36.0 size=     512KiB time=00:00:02.35 bitrate=1785.0kbits/s speed=0.0138x elapsed=0:02:50.56    \nframe=  144 fps=0.8 q=36.0 size=     512KiB time=00:00:02.36 bitrate=1772.4kbits/s speed=0.0138x elapsed=0:02:51.07    \nframe=  145 fps=0.8 q=30.7 size=     512KiB time=00:00:02.38 bitrate=1760.0kbits/s speed=0.0139x elapsed=0:02:51.65    \nframe=  145 fps=0.8 q=30.7 size=     512KiB time=00:00:02.38 bitrate=1760.0kbits/s speed=0.0138x elapsed=0:02:52.18    \nframe=  146 fps=0.8 q=35.3 size=     512KiB time=00:00:02.40 bitrate=1747.8kbits/s speed=0.0139x elapsed=0:02:52.70    \nframe=  146 fps=0.8 q=35.3 size=     512KiB time=00:00:02.40 bitrate=1747.8kbits/s speed=0.0139x elapsed=0:02:53.21    \nframe=  147 fps=0.8 q=37.0 size=     512KiB time=00:00:02.41 bitrate=1735.7kbits/s speed=0.0139x elapsed=0:02:53.77    \nframe=  147 fps=0.8 q=37.0 size=     512KiB time=00:00:02.41 bitrate=1735.7kbits/s speed=0.0139x elapsed=0:02:54.32    \nframe=  147 fps=0.8 q=37.0 size=     512KiB time=00:00:02.41 bitrate=1735.7kbits/s speed=0.0138x elapsed=0:02:54.85    \nframe=  148 fps=0.8 q=35.8 size=     512KiB time=00:00:02.43 bitrate=1723.8kbits/s speed=0.0139x elapsed=0:02:55.38    \nframe=  148 fps=0.8 q=35.8 size=     512KiB time=00:00:02.43 bitrate=1723.8kbits/s speed=0.0138x elapsed=0:02:55.93    \nframe=  149 fps=0.8 q=36.0 size=     512KiB time=00:00:02.45 bitrate=1712.1kbits/s speed=0.0139x elapsed=0:02:56.47    \nframe=  150 fps=0.8 q=30.7 size=     512KiB time=00:00:02.46 bitrate=1700.5kbits/s speed=0.0139x elapsed=0:02:57.00    \nframe=  150 fps=0.8 q=30.7 size=     512KiB time=00:00:02.46 bitrate=1700.5kbits/s speed=0.0139x elapsed=0:02:57.53    \nframe=  150 fps=0.8 q=30.7 size=     512KiB time=00:00:02.46 bitrate=1700.5kbits/s speed=0.0139x elapsed=0:02:58.08    \nframe=  152 fps=0.9 q=37.0 size=     512KiB time=00:00:02.50 bitrate=1677.9kbits/s speed=0.014x elapsed=0:02:58.62    \nframe=  153 fps=0.9 q=37.0 size=     512KiB time=00:00:02.51 bitrate=1666.8kbits/s speed=0.014x elapsed=0:02:59.20    \nframe=  153 fps=0.9 q=37.0 size=     512KiB time=00:00:02.51 bitrate=1666.8kbits/s speed=0.014x elapsed=0:02:59.85    \nframe=  153 fps=0.8 q=37.0 size=     512KiB time=00:00:02.51 bitrate=1666.8kbits/s speed=0.0139x elapsed=0:03:00.40    \nframe=  153 fps=0.8 q=37.0 size=     512KiB time=00:00:02.51 bitrate=1666.8kbits/s speed=0.0139x elapsed=0:03:00.93    \nframe=  153 fps=0.8 q=37.0 size=     512KiB time=00:00:02.51 bitrate=1666.8kbits/s speed=0.0139x elapsed=0:03:01.48    \nframe=  154 fps=0.8 q=37.0 size=     512KiB time=00:00:02.53 bitrate=1655.8kbits/s speed=0.0139x elapsed=0:03:02.04    \nframe=  154 fps=0.8 q=37.0 size=     512KiB time=00:00:02.53 bitrate=1655.8kbits/s speed=0.0139x elapsed=0:03:02.72    \nframe=  154 fps=0.8 q=37.0 size=     512KiB time=00:00:02.53 bitrate=1655.8kbits/s speed=0.0138x elapsed=0:03:03.42    \nframe=  154 fps=0.8 q=37.0 size=     512KiB time=00:00:02.53 bitrate=1655.8kbits/s speed=0.0138x elapsed=0:03:04.01    \nframe=  154 fps=0.8 q=37.0 size=     512KiB time=00:00:02.53 bitrate=1655.8kbits/s speed=0.0137x elapsed=0:03:04.60    \nframe=  154 fps=0.8 q=37.0 size=     512KiB time=00:00:02.53 bitrate=1655.8kbits/s speed=0.0137x elapsed=0:03:05.21    \nframe=  154 fps=0.8 q=37.0 size=     512KiB time=00:00:02.53 bitrate=1655.8kbits/s speed=0.0136x elapsed=0:03:05.95    \nframe=  154 fps=0.8 q=37.0 size=     512KiB time=00:00:02.53 bitrate=1655.8kbits/s speed=0.0136x elapsed=0:03:06.59    \nframe=  154 fps=0.8 q=37.0 size=     512KiB time=00:00:02.53 bitrate=1655.8kbits/s speed=0.0135x elapsed=0:03:07.21    \nframe=  154 fps=0.8 q=37.0 size=     512KiB time=00:00:02.53 bitrate=1655.8kbits/s speed=0.0135x elapsed=0:03:07.87    \nframe=  154 fps=0.8 q=37.0 size=     512KiB time=00:00:02.53 bitrate=1655.8kbits/s speed=0.0134x elapsed=0:03:08.46    \nframe=  154 fps=0.8 q=37.0 size=     512KiB time=00:00:02.53 bitrate=1655.8kbits/s speed=0.0134x elapsed=0:03:09.06    \nframe=  154 fps=0.8 q=37.0 size=     512KiB time=00:00:02.53 bitrate=1655.8kbits/s speed=0.0134x elapsed=0:03:09.64    \nframe=  155 fps=0.8 q=31.1 size=     512KiB time=00:00:02.55 bitrate=1645.0kbits/s speed=0.0134x elapsed=0:03:10.22    \nframe=  155 fps=0.8 q=31.1 size=     512KiB time=00:00:02.55 bitrate=1645.0kbits/s speed=0.0134x elapsed=0:03:10.77    \nframe=  156 fps=0.8 q=36.9 size=     512KiB time=00:00:02.56 bitrate=1634.3kbits/s speed=0.0134x elapsed=0:03:11.30    \nframe=  157 fps=0.8 q=37.0 size=     512KiB time=00:00:02.58 bitrate=1623.7kbits/s speed=0.0135x elapsed=0:03:11.87    \nframe=  157 fps=0.8 q=37.0 size=     512KiB time=00:00:02.58 bitrate=1623.7kbits/s speed=0.0134x elapsed=0:03:12.45    \nframe=  157 fps=0.8 q=37.0 size=     512KiB time=00:00:02.58 bitrate=1623.7kbits/s speed=0.0134x elapsed=0:03:13.00    \nframe=  157 fps=0.8 q=37.0 size=     512KiB time=00:00:02.58 bitrate=1623.7kbits/s speed=0.0133x elapsed=0:03:13.51    \nframe=  158 fps=0.8 q=37.0 size=     512KiB time=00:00:02.60 bitrate=1613.3kbits/s speed=0.0134x elapsed=0:03:14.03    \nframe=  158 fps=0.8 q=37.0 size=     512KiB time=00:00:02.60 bitrate=1613.3kbits/s speed=0.0134x elapsed=0:03:14.58    \nframe=  159 fps=0.8 q=36.9 size=     512KiB time=00:00:02.61 bitrate=1603.1kbits/s speed=0.0134x elapsed=0:03:15.13    \nframe=  160 fps=0.8 q=31.2 size=     512KiB time=00:00:02.63 bitrate=1592.9kbits/s speed=0.0135x elapsed=0:03:15.65    \nframe=  160 fps=0.8 q=31.2 size=     512KiB time=00:00:02.63 bitrate=1592.9kbits/s speed=0.0134x elapsed=0:03:16.21    \nframe=  161 fps=0.8 q=35.3 size=     512KiB time=00:00:02.65 bitrate=1582.9kbits/s speed=0.0135x elapsed=0:03:16.77    \nframe=  162 fps=0.8 q=37.0 size=     512KiB time=00:00:02.66 bitrate=1573.0kbits/s speed=0.0135x elapsed=0:03:17.29    \nframe=  162 fps=0.8 q=37.0 size=     512KiB time=00:00:02.66 bitrate=1573.0kbits/s speed=0.0135x elapsed=0:03:17.80    \nframe=  162 fps=0.8 q=37.0 size=     512KiB time=00:00:02.66 bitrate=1573.0kbits/s speed=0.0134x elapsed=0:03:18.34    \nframe=  162 fps=0.8 q=37.0 size=     512KiB time=00:00:02.66 bitrate=1573.0kbits/s speed=0.0134x elapsed=0:03:18.85    \nframe=  163 fps=0.8 q=37.0 size=     512KiB time=00:00:02.68 bitrate=1563.2kbits/s speed=0.0135x elapsed=0:03:19.38    \nframe=  164 fps=0.8 q=31.6 size=     512KiB time=00:00:02.70 bitrate=1553.6kbits/s speed=0.0135x elapsed=0:03:19.90    \nframe=  165 fps=0.8 q=36.1 size=     512KiB time=00:00:02.71 bitrate=1544.0kbits/s speed=0.0136x elapsed=0:03:20.47    \nframe=  165 fps=0.8 q=36.1 size=     512KiB time=00:00:02.71 bitrate=1544.0kbits/s speed=0.0135x elapsed=0:03:20.99    \nframe=  165 fps=0.8 q=36.1 size=     512KiB time=00:00:02.71 bitrate=1544.0kbits/s speed=0.0135x elapsed=0:03:21.54    \nframe=  166 fps=0.8 q=37.0 size=     512KiB time=00:00:02.73 bitrate=1534.6kbits/s speed=0.0135x elapsed=0:03:22.06    \nframe=  167 fps=0.8 q=37.8 size=     512KiB time=00:00:02.75 bitrate=1525.3kbits/s speed=0.0136x elapsed=0:03:22.59    \nframe=  167 fps=0.8 q=37.8 size=     512KiB time=00:00:02.75 bitrate=1525.3kbits/s speed=0.0135x elapsed=0:03:23.12    \nframe=  168 fps=0.8 q=31.8 size=     512KiB time=00:00:02.76 bitrate=1516.1kbits/s speed=0.0136x elapsed=0:03:23.72    \nframe=  169 fps=0.8 q=38.0 size=     512KiB time=00:00:02.78 bitrate=1507.1kbits/s speed=0.0136x elapsed=0:03:24.28    \nframe=  169 fps=0.8 q=38.0 size=     512KiB time=00:00:02.78 bitrate=1507.1kbits/s speed=0.0136x elapsed=0:03:24.81    \nframe=  169 fps=0.8 q=38.0 size=     512KiB time=00:00:02.78 bitrate=1507.1kbits/s speed=0.0136x elapsed=0:03:25.37    \nframe=  169 fps=0.8 q=38.0 size=     512KiB time=00:00:02.78 bitrate=1507.1kbits/s speed=0.0135x elapsed=0:03:25.90    \nframe=  170 fps=0.8 q=31.8 size=     512KiB time=00:00:02.80 bitrate=1498.1kbits/s speed=0.0136x elapsed=0:03:26.48    \nframe=  170 fps=0.8 q=31.8 size=     512KiB time=00:00:02.80 bitrate=1498.1kbits/s speed=0.0135x elapsed=0:03:27.01    \nframe=  170 fps=0.8 q=31.8 size=     512KiB time=00:00:02.80 bitrate=1498.1kbits/s speed=0.0135x elapsed=0:03:27.55    \nframe=  171 fps=0.8 q=36.3 size=     512KiB time=00:00:02.81 bitrate=1489.2kbits/s speed=0.0135x elapsed=0:03:28.09    \nframe=  171 fps=0.8 q=36.3 size=     512KiB time=00:00:02.81 bitrate=1489.2kbits/s speed=0.0135x elapsed=0:03:28.61    \nframe=  171 fps=0.8 q=36.3 size=     512KiB time=00:00:02.81 bitrate=1489.2kbits/s speed=0.0135x elapsed=0:03:29.16    \nframe=  171 fps=0.8 q=36.3 size=     512KiB time=00:00:02.81 bitrate=1489.2kbits/s speed=0.0134x elapsed=0:03:29.70    \nframe=  171 fps=0.8 q=36.3 size=     512KiB time=00:00:02.81 bitrate=1489.2kbits/s speed=0.0134x elapsed=0:03:30.23    \nframe=  171 fps=0.8 q=36.3 size=     512KiB time=00:00:02.81 bitrate=1489.2kbits/s speed=0.0134x elapsed=0:03:30.76    \nframe=  171 fps=0.8 q=36.3 size=     512KiB time=00:00:02.81 bitrate=1489.2kbits/s speed=0.0133x elapsed=0:03:31.28    \nframe=  171 fps=0.8 q=36.3 size=     512KiB time=00:00:02.81 bitrate=1489.2kbits/s speed=0.0133x elapsed=0:03:31.80    \nframe=  171 fps=0.8 q=36.3 size=     512KiB time=00:00:02.81 bitrate=1489.2kbits/s speed=0.0133x elapsed=0:03:32.31    \nframe=  172 fps=0.8 q=37.9 size=     512KiB time=00:00:02.83 bitrate=1480.5kbits/s speed=0.0133x elapsed=0:03:32.83    \nframe=  173 fps=0.8 q=37.7 size=     512KiB time=00:00:02.85 bitrate=1471.8kbits/s speed=0.0134x elapsed=0:03:33.36    \nframe=  173 fps=0.8 q=37.7 size=     512KiB time=00:00:02.85 bitrate=1471.8kbits/s speed=0.0133x elapsed=0:03:33.90    \nframe=  173 fps=0.8 q=37.7 size=     512KiB time=00:00:02.85 bitrate=1471.8kbits/s speed=0.0133x elapsed=0:03:34.45    \nframe=  174 fps=0.8 q=32.0 size=     512KiB time=00:00:02.86 bitrate=1463.3kbits/s speed=0.0133x elapsed=0:03:35.02    \nframe=  174 fps=0.8 q=32.0 size=     512KiB time=00:00:02.86 bitrate=1463.3kbits/s speed=0.0133x elapsed=0:03:35.58    \nframe=  174 fps=0.8 q=32.0 size=     512KiB time=00:00:02.86 bitrate=1463.3kbits/s speed=0.0133x elapsed=0:03:36.12    \nframe=  175 fps=0.8 q=36.0 size=     512KiB time=00:00:02.88 bitrate=1454.8kbits/s speed=0.0133x elapsed=0:03:36.68    \nframe=  175 fps=0.8 q=36.0 size=     512KiB time=00:00:02.88 bitrate=1454.8kbits/s speed=0.0133x elapsed=0:03:37.28    \nframe=  175 fps=0.8 q=36.0 size=     512KiB time=00:00:02.88 bitrate=1454.8kbits/s speed=0.0132x elapsed=0:03:37.81    \nframe=  175 fps=0.8 q=36.0 size=     512KiB time=00:00:02.88 bitrate=1454.8kbits/s speed=0.0132x elapsed=0:03:38.35    \nframe=  175 fps=0.8 q=36.0 size=     512KiB time=00:00:02.88 bitrate=1454.8kbits/s speed=0.0132x elapsed=0:03:38.87    \nframe=  175 fps=0.8 q=36.0 size=     512KiB time=00:00:02.88 bitrate=1454.8kbits/s speed=0.0131x elapsed=0:03:39.42    \nframe=  175 fps=0.8 q=36.0 size=     512KiB time=00:00:02.88 bitrate=1454.8kbits/s speed=0.0131x elapsed=0:03:39.95    \nframe=  176 fps=0.8 q=38.0 size=     512KiB time=00:00:02.90 bitrate=1446.4kbits/s speed=0.0132x elapsed=0:03:40.48    \nframe=  176 fps=0.8 q=38.0 size=     512KiB time=00:00:02.90 bitrate=1446.4kbits/s speed=0.0131x elapsed=0:03:41.04    \nframe=  177 fps=0.8 q=37.9 size=     512KiB time=00:00:02.91 bitrate=1438.2kbits/s speed=0.0132x elapsed=0:03:41.60    \nframe=  177 fps=0.8 q=37.9 size=     512KiB time=00:00:02.91 bitrate=1438.2kbits/s speed=0.0131x elapsed=0:03:42.16    \nframe=  178 fps=0.8 q=32.2 size=     512KiB time=00:00:02.93 bitrate=1430.0kbits/s speed=0.0132x elapsed=0:03:42.68    \nframe=  178 fps=0.8 q=32.2 size=     512KiB time=00:00:02.93 bitrate=1430.0kbits/s speed=0.0131x elapsed=0:03:43.20    \nframe=  179 fps=0.8 q=37.5 size=     512KiB time=00:00:02.95 bitrate=1421.9kbits/s speed=0.0132x elapsed=0:03:43.71    \nframe=  180 fps=0.8 q=37.9 size=     512KiB time=00:00:02.96 bitrate=1413.9kbits/s speed=0.0132x elapsed=0:03:44.24    \nframe=  180 fps=0.8 q=37.9 size=     512KiB time=00:00:02.96 bitrate=1413.9kbits/s speed=0.0132x elapsed=0:03:44.76    \nframe=  180 fps=0.8 q=37.9 size=     512KiB time=00:00:02.96 bitrate=1413.9kbits/s speed=0.0132x elapsed=0:03:45.28    \nframe=  181 fps=0.8 q=33.0 size=     512KiB time=00:00:02.98 bitrate=1406.0kbits/s speed=0.0132x elapsed=0:03:45.82    \nframe=  181 fps=0.8 q=33.0 size=     512KiB time=00:00:02.98 bitrate=1406.0kbits/s speed=0.0132x elapsed=0:03:46.37    \nframe=  182 fps=0.8 q=37.9 size=     512KiB time=00:00:03.00 bitrate=1398.2kbits/s speed=0.0132x elapsed=0:03:46.88    \nframe=  182 fps=0.8 q=37.9 size=     512KiB time=00:00:03.00 bitrate=1398.2kbits/s speed=0.0132x elapsed=0:03:47.40    \nframe=  182 fps=0.8 q=37.9 size=     512KiB time=00:00:03.00 bitrate=1398.2kbits/s speed=0.0132x elapsed=0:03:47.93    \nframe=  182 fps=0.8 q=37.9 size=     512KiB time=00:00:03.00 bitrate=1398.2kbits/s speed=0.0131x elapsed=0:03:48.54    \nframe=  182 fps=0.8 q=37.9 size=     512KiB time=00:00:03.00 bitrate=1398.2kbits/s speed=0.0131x elapsed=0:03:49.07    \nframe=  183 fps=0.8 q=39.0 size=     512KiB time=00:00:03.01 bitrate=1390.5kbits/s speed=0.0131x elapsed=0:03:49.62    \nframe=  184 fps=0.8 q=32.1 size=     512KiB time=00:00:03.03 bitrate=1382.9kbits/s speed=0.0132x elapsed=0:03:50.14    \nframe=  185 fps=0.8 q=36.2 size=     512KiB time=00:00:03.05 bitrate=1375.3kbits/s speed=0.0132x elapsed=0:03:50.69    \nframe=  185 fps=0.8 q=36.2 size=     512KiB time=00:00:03.05 bitrate=1375.3kbits/s speed=0.0132x elapsed=0:03:51.21    \nframe=  185 fps=0.8 q=36.2 size=     512KiB time=00:00:03.05 bitrate=1375.3kbits/s speed=0.0132x elapsed=0:03:51.78    \nframe=  185 fps=0.8 q=36.2 size=     512KiB time=00:00:03.05 bitrate=1375.3kbits/s speed=0.0131x elapsed=0:03:52.31    \nframe=  185 fps=0.8 q=36.2 size=     512KiB time=00:00:03.05 bitrate=1375.3kbits/s speed=0.0131x elapsed=0:03:52.86    \nframe=  185 fps=0.8 q=36.2 size=     512KiB time=00:00:03.05 bitrate=1375.3kbits/s speed=0.0131x elapsed=0:03:53.41    \nframe=  185 fps=0.8 q=36.2 size=     512KiB time=00:00:03.05 bitrate=1375.3kbits/s speed=0.013x elapsed=0:03:53.95    \nframe=  186 fps=0.8 q=37.9 size=     512KiB time=00:00:03.06 bitrate=1367.8kbits/s speed=0.0131x elapsed=0:03:54.52    \nframe=  187 fps=0.8 q=38.7 size=     512KiB time=00:00:03.08 bitrate=1360.4kbits/s speed=0.0131x elapsed=0:03:55.04    \nframe=  187 fps=0.8 q=38.7 size=     512KiB time=00:00:03.08 bitrate=1360.4kbits/s speed=0.0131x elapsed=0:03:55.56    \nframe=  187 fps=0.8 q=38.7 size=     512KiB time=00:00:03.08 bitrate=1360.4kbits/s speed=0.0131x elapsed=0:03:56.09    \nframe=  187 fps=0.8 q=38.7 size=     512KiB time=00:00:03.08 bitrate=1360.4kbits/s speed=0.013x elapsed=0:03:56.60    \nframe=  188 fps=0.8 q=33.5 size=     512KiB time=00:00:03.10 bitrate=1353.1kbits/s speed=0.0131x elapsed=0:03:57.16    \nframe=  189 fps=0.8 q=37.7 size=     512KiB time=00:00:03.11 bitrate=1345.9kbits/s speed=0.0131x elapsed=0:03:57.68    \nframe=  189 fps=0.8 q=37.7 size=     512KiB time=00:00:03.11 bitrate=1345.9kbits/s speed=0.0131x elapsed=0:03:58.22    \nframe=  189 fps=0.8 q=37.7 size=     512KiB time=00:00:03.11 bitrate=1345.9kbits/s speed=0.0131x elapsed=0:03:58.75    \nframe=  189 fps=0.8 q=37.7 size=     512KiB time=00:00:03.11 bitrate=1345.9kbits/s speed=0.013x elapsed=0:03:59.33    \nframe=  189 fps=0.8 q=37.7 size=     512KiB time=00:00:03.11 bitrate=1345.9kbits/s speed=0.013x elapsed=0:03:59.89    \nframe=  189 fps=0.8 q=37.7 size=     512KiB time=00:00:03.11 bitrate=1345.9kbits/s speed=0.013x elapsed=0:04:00.43    \nframe=  190 fps=0.8 q=39.0 size=     512KiB time=00:00:03.13 bitrate=1338.7kbits/s speed=0.013x elapsed=0:04:00.96    \nframe=  190 fps=0.8 q=39.0 size=     512KiB time=00:00:03.13 bitrate=1338.7kbits/s speed=0.013x elapsed=0:04:01.52    \nframe=  191 fps=0.8 q=38.9 size=     512KiB time=00:00:03.15 bitrate=1331.6kbits/s speed=0.013x elapsed=0:04:02.03    \nframe=  191 fps=0.8 q=38.9 size=     512KiB time=00:00:03.15 bitrate=1331.6kbits/s speed=0.013x elapsed=0:04:02.54    \nframe=  191 fps=0.8 q=38.9 size=     512KiB time=00:00:03.15 bitrate=1331.6kbits/s speed=0.013x elapsed=0:04:03.11    \nframe=  191 fps=0.8 q=38.9 size=     512KiB time=00:00:03.15 bitrate=1331.6kbits/s speed=0.0129x elapsed=0:04:03.67    \nframe=  192 fps=0.8 q=32.9 size=     512KiB time=00:00:03.16 bitrate=1324.6kbits/s speed=0.013x elapsed=0:04:04.19    \nframe=  192 fps=0.8 q=32.9 size=     512KiB time=00:00:03.16 bitrate=1324.6kbits/s speed=0.0129x elapsed=0:04:04.84    \nframe=  192 fps=0.8 q=32.9 size=     512KiB time=00:00:03.16 bitrate=1324.6kbits/s speed=0.0129x elapsed=0:04:05.41    \nframe=  193 fps=0.8 q=36.4 size=     768KiB time=00:00:03.18 bitrate=1976.5kbits/s speed=0.0129x elapsed=0:04:05.94    \nframe=  193 fps=0.8 q=36.4 size=     768KiB time=00:00:03.18 bitrate=1976.5kbits/s speed=0.0129x elapsed=0:04:06.45    \nframe=  194 fps=0.8 q=38.9 size=     768KiB time=00:00:03.20 bitrate=1966.2kbits/s speed=0.013x elapsed=0:04:07.02    \nframe=  194 fps=0.8 q=38.9 size=     768KiB time=00:00:03.20 bitrate=1966.2kbits/s speed=0.0129x elapsed=0:04:07.55    \nframe=  194 fps=0.8 q=38.9 size=     768KiB time=00:00:03.20 bitrate=1966.2kbits/s speed=0.0129x elapsed=0:04:08.06    \nframe=  195 fps=0.8 q=38.8 size=     768KiB time=00:00:03.21 bitrate=1956.0kbits/s speed=0.0129x elapsed=0:04:08.61    \nframe=  195 fps=0.8 q=38.8 size=     768KiB time=00:00:03.21 bitrate=1956.0kbits/s speed=0.0129x elapsed=0:04:09.16    \nframe=  195 fps=0.8 q=38.8 size=     768KiB time=00:00:03.21 bitrate=1956.0kbits/s speed=0.0129x elapsed=0:04:09.71    \nframe=  195 fps=0.8 q=38.8 size=     768KiB time=00:00:03.21 bitrate=1956.0kbits/s speed=0.0129x elapsed=0:04:10.23    \nframe=  195 fps=0.8 q=38.8 size=     768KiB time=00:00:03.21 bitrate=1956.0kbits/s speed=0.0128x elapsed=0:04:10.74    \nframe=  195 fps=0.8 q=38.8 size=     768KiB time=00:00:03.21 bitrate=1956.0kbits/s speed=0.0128x elapsed=0:04:11.28    \nframe=  196 fps=0.8 q=32.4 size=     768KiB time=00:00:03.23 bitrate=1945.9kbits/s speed=0.0128x elapsed=0:04:11.82    \nframe=  197 fps=0.8 q=36.6 size=     768KiB time=00:00:03.25 bitrate=1935.9kbits/s speed=0.0129x elapsed=0:04:12.36    \nframe=  197 fps=0.8 q=36.6 size=     768KiB time=00:00:03.25 bitrate=1935.9kbits/s speed=0.0128x elapsed=0:04:12.96    \nframe=  197 fps=0.8 q=36.6 size=     768KiB time=00:00:03.25 bitrate=1935.9kbits/s speed=0.0128x elapsed=0:04:13.51    \nframe=  197 fps=0.8 q=36.6 size=     768KiB time=00:00:03.25 bitrate=1935.9kbits/s speed=0.0128x elapsed=0:04:14.03    \nframe=  197 fps=0.8 q=36.6 size=     768KiB time=00:00:03.25 bitrate=1935.9kbits/s speed=0.0128x elapsed=0:04:14.54    \nframe=  198 fps=0.8 q=39.8 size=     768KiB time=00:00:03.26 bitrate=1926.1kbits/s speed=0.0128x elapsed=0:04:15.08    \nframe=  198 fps=0.8 q=39.8 size=     768KiB time=00:00:03.26 bitrate=1926.1kbits/s speed=0.0128x elapsed=0:04:15.61    \nframe=  199 fps=0.8 q=39.9 size=     768KiB time=00:00:03.28 bitrate=1916.3kbits/s speed=0.0128x elapsed=0:04:16.13    \nframe=  200 fps=0.8 q=32.2 size=     768KiB time=00:00:03.28 bitrate=1916.3kbits/s speed=0.0128x elapsed=0:04:16.67    \nframe=  200 fps=0.8 q=32.2 size=     768KiB time=00:00:03.30 bitrate=1906.6kbits/s speed=0.0128x elapsed=0:04:17.25    \nframe=  201 fps=0.8 q=38.1 size=     768KiB time=00:00:03.31 bitrate=1897.0kbits/s speed=0.0129x elapsed=0:04:17.83    \nframe=  201 fps=0.8 q=38.1 size=     768KiB time=00:00:03.31 bitrate=1897.0kbits/s speed=0.0128x elapsed=0:04:18.35    \nframe=  201 fps=0.8 q=38.1 size=     768KiB time=00:00:03.31 bitrate=1897.0kbits/s speed=0.0128x elapsed=0:04:18.87    \nframe=  202 fps=0.8 q=40.0 size=     768KiB time=00:00:03.33 bitrate=1887.5kbits/s speed=0.0128x elapsed=0:04:19.43    \nframe=  202 fps=0.8 q=40.0 size=     768KiB time=00:00:03.33 bitrate=1887.5kbits/s speed=0.0128x elapsed=0:04:19.95    \nframe=  204 fps=0.8 q=38.9 size=     768KiB time=00:00:03.36 bitrate=1868.9kbits/s speed=0.0129x elapsed=0:04:20.50    \nframe=  205 fps=0.8 q=39.6 size=     768KiB time=00:00:03.38 bitrate=1859.6kbits/s speed=0.013x elapsed=0:04:21.02    \nframe=  205 fps=0.8 q=39.6 size=     768KiB time=00:00:03.38 bitrate=1859.6kbits/s speed=0.0129x elapsed=0:04:21.58    \nframe=  205 fps=0.8 q=39.6 size=     768KiB time=00:00:03.38 bitrate=1859.6kbits/s speed=0.0129x elapsed=0:04:22.15    \nframe=  205 fps=0.8 q=39.6 size=     768KiB time=00:00:03.38 bitrate=1859.6kbits/s speed=0.0129x elapsed=0:04:22.69    \nframe=  206 fps=0.8 q=41.0 size=     768KiB time=00:00:03.40 bitrate=1850.5kbits/s speed=0.0129x elapsed=0:04:23.22    \nframe=  207 fps=0.8 q=39.9 size=     768KiB time=00:00:03.41 bitrate=1841.5kbits/s speed=0.013x elapsed=0:04:23.74    \nframe=  208 fps=0.8 q=32.7 size=     768KiB time=00:00:03.43 bitrate=1832.6kbits/s speed=0.013x elapsed=0:04:24.27    \nframe=  209 fps=0.8 q=38.6 size=     768KiB time=00:00:03.45 bitrate=1823.7kbits/s speed=0.013x elapsed=0:04:24.79    \nframe=  209 fps=0.8 q=38.6 size=     768KiB time=00:00:03.45 bitrate=1823.7kbits/s speed=0.013x elapsed=0:04:25.31    \nframe=  210 fps=0.8 q=40.0 size=     768KiB time=00:00:03.46 bitrate=1814.9kbits/s speed=0.013x elapsed=0:04:25.85    \nframe=  210 fps=0.8 q=40.0 size=     768KiB time=00:00:03.46 bitrate=1814.9kbits/s speed=0.013x elapsed=0:04:26.42    \nframe=  210 fps=0.8 q=40.0 size=     768KiB time=00:00:03.46 bitrate=1814.9kbits/s speed=0.013x elapsed=0:04:26.97    \nframe=  210 fps=0.8 q=40.0 size=     768KiB time=00:00:03.46 bitrate=1814.9kbits/s speed=0.013x elapsed=0:04:27.49    \nframe=  210 fps=0.8 q=40.0 size=     768KiB time=00:00:03.46 bitrate=1814.9kbits/s speed=0.0129x elapsed=0:04:28.05    \nframe=  211 fps=0.8 q=40.0 size=     768KiB time=00:00:03.48 bitrate=1806.3kbits/s speed=0.013x elapsed=0:04:28.63    \nframe=  212 fps=0.8 q=32.5 size=     768KiB time=00:00:03.50 bitrate=1797.7kbits/s speed=0.013x elapsed=0:04:29.22    \nframe=  212 fps=0.8 q=32.5 size=     768KiB time=00:00:03.50 bitrate=1797.7kbits/s speed=0.013x elapsed=0:04:29.73    \nframe=  212 fps=0.8 q=32.5 size=     768KiB time=00:00:03.50 bitrate=1797.7kbits/s speed=0.0129x elapsed=0:04:30.36    \nframe=  212 fps=0.8 q=32.5 size=     768KiB time=00:00:03.50 bitrate=1797.7kbits/s speed=0.0129x elapsed=0:04:30.89    \nframe=  212 fps=0.8 q=32.5 size=     768KiB time=00:00:03.50 bitrate=1797.7kbits/s speed=0.0129x elapsed=0:04:31.42    \nframe=  213 fps=0.8 q=37.6 size=     768KiB time=00:00:03.51 bitrate=1789.1kbits/s speed=0.0129x elapsed=0:04:31.96    \nframe=  213 fps=0.8 q=37.6 size=     768KiB time=00:00:03.51 bitrate=1789.1kbits/s speed=0.0129x elapsed=0:04:32.50    \nframe=  213 fps=0.8 q=37.6 size=     768KiB time=00:00:03.51 bitrate=1789.1kbits/s speed=0.0129x elapsed=0:04:33.03    \nframe=  213 fps=0.8 q=37.6 size=     768KiB time=00:00:03.51 bitrate=1789.1kbits/s speed=0.0129x elapsed=0:04:33.58    \nframe=  214 fps=0.8 q=39.8 size=     768KiB time=00:00:03.53 bitrate=1780.7kbits/s speed=0.0129x elapsed=0:04:34.11    \nframe=  214 fps=0.8 q=39.8 size=     768KiB time=00:00:03.53 bitrate=1780.7kbits/s speed=0.0129x elapsed=0:04:34.63    \nframe=  215 fps=0.8 q=39.9 size=     768KiB time=00:00:03.55 bitrate=1772.3kbits/s speed=0.0129x elapsed=0:04:35.15    \nframe=  215 fps=0.8 q=39.9 size=     768KiB time=00:00:03.55 bitrate=1772.3kbits/s speed=0.0129x elapsed=0:04:35.67    \nframe=  217 fps=0.8 q=36.4 size=     768KiB time=00:00:03.58 bitrate=1755.9kbits/s speed=0.013x elapsed=0:04:36.18    \nframe=  217 fps=0.8 q=36.4 size=     768KiB time=00:00:03.58 bitrate=1755.9kbits/s speed=0.0129x elapsed=0:04:36.71    \nframe=  219 fps=0.8 q=39.8 size=     768KiB time=00:00:03.61 bitrate=1739.7kbits/s speed=0.013x elapsed=0:04:37.21    \nframe=  220 fps=0.8 q=32.1 size=     768KiB time=00:00:03.63 bitrate=1731.7kbits/s speed=0.0131x elapsed=0:04:37.73    \nframe=  221 fps=0.8 q=38.3 size=     768KiB time=00:00:03.65 bitrate=1723.8kbits/s speed=0.0131x elapsed=0:04:38.25    \nframe=  222 fps=0.8 q=39.9 size=     768KiB time=00:00:03.66 bitrate=1715.9kbits/s speed=0.0132x elapsed=0:04:38.76    \nframe=  223 fps=0.8 q=39.9 size=     768KiB time=00:00:03.68 bitrate=1708.2kbits/s speed=0.0132x elapsed=0:04:39.28    \nframe=  224 fps=0.8 q=31.9 size=     768KiB time=00:00:03.70 bitrate=1700.5kbits/s speed=0.0132x elapsed=0:04:39.79    \nframe=  225 fps=0.8 q=38.0 size=     768KiB time=00:00:03.71 bitrate=1692.9kbits/s speed=0.0133x elapsed=0:04:40.31    \nframe=  226 fps=0.8 q=39.9 size=     768KiB time=00:00:03.73 bitrate=1685.3kbits/s speed=0.0133x elapsed=0:04:40.83    \nframe=  227 fps=0.8 q=33.1 size=     768KiB time=00:00:03.75 bitrate=1677.8kbits/s speed=0.0133x elapsed=0:04:41.34    \nframe=  228 fps=0.8 q=37.1 size=     768KiB time=00:00:03.76 bitrate=1670.4kbits/s speed=0.0134x elapsed=0:04:41.85    \nframe=  229 fps=0.8 q=40.9 size=     768KiB time=00:00:03.78 bitrate=1663.0kbits/s speed=0.0134x elapsed=0:04:42.37    \nframe=  231 fps=0.8 q=41.0 size=     768KiB time=00:00:03.81 bitrate=1648.5kbits/s speed=0.0135x elapsed=0:04:42.96    \nframe=  231 fps=0.8 q=41.0 size=     768KiB time=00:00:03.81 bitrate=1648.5kbits/s speed=0.0135x elapsed=0:04:43.49    \nframe=  232 fps=0.8 q=32.3 size=     768KiB time=00:00:03.83 bitrate=1641.3kbits/s speed=0.0135x elapsed=0:04:44.04    \nframe=  233 fps=0.8 q=37.6 size=     768KiB time=00:00:03.85 bitrate=1634.2kbits/s speed=0.0135x elapsed=0:04:44.59    \nframe=  233 fps=0.8 q=37.6 size=     768KiB time=00:00:03.85 bitrate=1634.2kbits/s speed=0.0135x elapsed=0:04:45.15    \nframe=  233 fps=0.8 q=37.6 size=     768KiB time=00:00:03.85 bitrate=1634.2kbits/s speed=0.0135x elapsed=0:04:45.71    \nframe=  233 fps=0.8 q=37.6 size=     768KiB time=00:00:03.85 bitrate=1634.2kbits/s speed=0.0134x elapsed=0:04:46.29    \nframe=  235 fps=0.8 q=32.2 size=     768KiB time=00:00:03.88 bitrate=1620.2kbits/s speed=0.0135x elapsed=0:04:46.85    \nframe=  235 fps=0.8 q=32.2 size=     768KiB time=00:00:03.88 bitrate=1620.2kbits/s speed=0.0135x elapsed=0:04:47.46    \nframe=  235 fps=0.8 q=32.2 size=     768KiB time=00:00:03.88 bitrate=1620.2kbits/s speed=0.0135x elapsed=0:04:48.13    \nframe=  236 fps=0.8 q=38.5 size=     768KiB time=00:00:03.90 bitrate=1613.3kbits/s speed=0.0135x elapsed=0:04:48.73    \nframe=  236 fps=0.8 q=38.5 size=     768KiB time=00:00:03.90 bitrate=1613.3kbits/s speed=0.0135x elapsed=0:04:49.32    \nframe=  236 fps=0.8 q=38.5 size=     768KiB time=00:00:03.90 bitrate=1613.3kbits/s speed=0.0135x elapsed=0:04:49.89    \nframe=  236 fps=0.8 q=38.5 size=     768KiB time=00:00:03.90 bitrate=1613.3kbits/s speed=0.0134x elapsed=0:04:50.45    \nframe=  238 fps=0.8 q=32.4 size=     768KiB time=00:00:03.93 bitrate=1599.6kbits/s speed=0.0135x elapsed=0:04:51.01    \nframe=  238 fps=0.8 q=32.4 size=     768KiB time=00:00:03.93 bitrate=1599.6kbits/s speed=0.0135x elapsed=0:04:51.64    \nframe=  238 fps=0.8 q=32.4 size=     768KiB time=00:00:03.93 bitrate=1599.6kbits/s speed=0.0135x elapsed=0:04:52.21    \nframe=  239 fps=0.8 q=39.1 size=     768KiB time=00:00:03.95 bitrate=1592.9kbits/s speed=0.0135x elapsed=0:04:52.82    \nframe=  239 fps=0.8 q=39.1 size=     768KiB time=00:00:03.95 bitrate=1592.9kbits/s speed=0.0135x elapsed=0:04:53.37    \nframe=  239 fps=0.8 q=39.1 size=     768KiB time=00:00:03.95 bitrate=1592.9kbits/s speed=0.0134x elapsed=0:04:54.03    \nframe=  239 fps=0.8 q=39.1 size=     768KiB time=00:00:03.95 bitrate=1592.9kbits/s speed=0.0134x elapsed=0:04:54.57    \nframe=  240 fps=0.8 q=39.9 size=     768KiB time=00:00:03.96 bitrate=1586.2kbits/s speed=0.0134x elapsed=0:04:55.16    \nframe=  240 fps=0.8 q=39.9 size=     768KiB time=00:00:03.96 bitrate=1586.2kbits/s speed=0.0134x elapsed=0:04:55.72    \nframe=  240 fps=0.8 q=39.9 size=     768KiB time=00:00:03.96 bitrate=1586.2kbits/s speed=0.0134x elapsed=0:04:56.38    \nframe=  241 fps=0.8 q=32.9 size=     768KiB time=00:00:03.98 bitrate=1579.5kbits/s speed=0.0134x elapsed=0:04:57.07    \nframe=  241 fps=0.8 q=32.9 size=     768KiB time=00:00:03.98 bitrate=1579.5kbits/s speed=0.0134x elapsed=0:04:57.63    \nframe=  241 fps=0.8 q=32.9 size=     768KiB time=00:00:03.98 bitrate=1579.5kbits/s speed=0.0134x elapsed=0:04:58.17    \nframe=  241 fps=0.8 q=32.9 size=     768KiB time=00:00:03.98 bitrate=1579.5kbits/s speed=0.0133x elapsed=0:04:58.71    \nframe=  241 fps=0.8 q=32.9 size=     768KiB time=00:00:03.98 bitrate=1579.5kbits/s speed=0.0133x elapsed=0:04:59.29    \nframe=  242 fps=0.8 q=38.8 size=     768KiB time=00:00:04.00 bitrate=1573.0kbits/s speed=0.0133x elapsed=0:04:59.87    \nframe=  242 fps=0.8 q=38.8 size=     768KiB time=00:00:04.00 bitrate=1573.0kbits/s speed=0.0133x elapsed=0:05:00.49    \nframe=  242 fps=0.8 q=38.8 size=     768KiB time=00:00:04.00 bitrate=1573.0kbits/s speed=0.0133x elapsed=0:05:01.04    \nframe=  242 fps=0.8 q=38.8 size=     768KiB time=00:00:04.00 bitrate=1573.0kbits/s speed=0.0133x elapsed=0:05:01.59    \nframe=  243 fps=0.8 q=39.8 size=     768KiB time=00:00:04.01 bitrate=1566.4kbits/s speed=0.0133x elapsed=0:05:02.12    \nframe=  243 fps=0.8 q=39.8 size=     768KiB time=00:00:04.01 bitrate=1566.4kbits/s speed=0.0133x elapsed=0:05:02.71    \nframe=  243 fps=0.8 q=39.8 size=     768KiB time=00:00:04.01 bitrate=1566.4kbits/s speed=0.0132x elapsed=0:05:03.30    \nframe=  243 fps=0.8 q=39.8 size=     768KiB time=00:00:04.01 bitrate=1566.4kbits/s speed=0.0132x elapsed=0:05:03.91    \nframe=  243 fps=0.8 q=39.8 size=     768KiB time=00:00:04.01 bitrate=1566.4kbits/s speed=0.0132x elapsed=0:05:04.44    \nframe=  243 fps=0.8 q=39.8 size=     768KiB time=00:00:04.01 bitrate=1566.4kbits/s speed=0.0132x elapsed=0:05:04.96    \nframe=  244 fps=0.8 q=33.0 size=     768KiB time=00:00:04.03 bitrate=1560.0kbits/s speed=0.0132x elapsed=0:05:05.65    \nframe=  244 fps=0.8 q=33.0 size=     768KiB time=00:00:04.03 bitrate=1560.0kbits/s speed=0.0132x elapsed=0:05:06.26    \nframe=  244 fps=0.8 q=33.0 size=     768KiB time=00:00:04.03 bitrate=1560.0kbits/s speed=0.0131x elapsed=0:05:06.84    \nframe=  244 fps=0.8 q=33.0 size=     768KiB time=00:00:04.03 bitrate=1560.0kbits/s speed=0.0131x elapsed=0:05:07.41    \nframe=  244 fps=0.8 q=33.0 size=     768KiB time=00:00:04.03 bitrate=1560.0kbits/s speed=0.0131x elapsed=0:05:08.03    \nframe=  244 fps=0.8 q=33.0 size=     768KiB time=00:00:04.03 bitrate=1560.0kbits/s speed=0.0131x elapsed=0:05:08.63    \nframe=  245 fps=0.8 q=39.8 size=     768KiB time=00:00:04.05 bitrate=1553.5kbits/s speed=0.0131x elapsed=0:05:09.19    \nframe=  245 fps=0.8 q=39.8 size=     768KiB time=00:00:04.05 bitrate=1553.5kbits/s speed=0.0131x elapsed=0:05:09.74    \nframe=  245 fps=0.8 q=39.8 size=     768KiB time=00:00:04.05 bitrate=1553.5kbits/s speed=0.0131x elapsed=0:05:10.32    \nframe=  245 fps=0.8 q=39.8 size=     768KiB time=00:00:04.05 bitrate=1553.5kbits/s speed=0.013x elapsed=0:05:10.93    \nframe=  246 fps=0.8 q=41.0 size=     768KiB time=00:00:04.06 bitrate=1547.2kbits/s speed=0.0131x elapsed=0:05:11.56    \nframe=  247 fps=0.8 q=41.0 size=     768KiB time=00:00:04.06 bitrate=1547.2kbits/s speed=0.013x elapsed=0:05:12.08    \nframe=  247 fps=0.8 q=41.0 size=     768KiB time=00:00:04.08 bitrate=1540.9kbits/s speed=0.0131x elapsed=0:05:12.65    \nframe=  247 fps=0.8 q=41.0 size=     768KiB time=00:00:04.08 bitrate=1540.9kbits/s speed=0.013x elapsed=0:05:13.16    \nframe=  247 fps=0.8 q=41.0 size=     768KiB time=00:00:04.08 bitrate=1540.9kbits/s speed=0.013x elapsed=0:05:13.72    \nframe=  247 fps=0.8 q=41.0 size=     768KiB time=00:00:04.08 bitrate=1540.9kbits/s speed=0.013x elapsed=0:05:14.26    \nframe=  247 fps=0.8 q=41.0 size=     768KiB time=00:00:04.08 bitrate=1540.9kbits/s speed=0.013x elapsed=0:05:14.79    \nframe=  247 fps=0.8 q=41.0 size=     768KiB time=00:00:04.08 bitrate=1540.9kbits/s speed=0.0129x elapsed=0:05:15.38    \nframe=  247 fps=0.8 q=41.0 size=     768KiB time=00:00:04.08 bitrate=1540.9kbits/s speed=0.0129x elapsed=0:05:15.98    \nframe=  247 fps=0.8 q=41.0 size=     768KiB time=00:00:04.08 bitrate=1540.9kbits/s speed=0.0129x elapsed=0:05:16.52    \nframe=  248 fps=0.8 q=32.9 size=     768KiB time=00:00:04.10 bitrate=1534.6kbits/s speed=0.0129x elapsed=0:05:17.07    \nframe=  248 fps=0.8 q=32.9 size=     768KiB time=00:00:04.10 bitrate=1534.6kbits/s speed=0.0129x elapsed=0:05:17.65    \nframe=  249 fps=0.8 q=40.3 size=    1024KiB time=00:00:04.11 bitrate=2037.8kbits/s speed=0.0129x elapsed=0:05:18.19    \nframe=  249 fps=0.8 q=40.3 size=    1024KiB time=00:00:04.11 bitrate=2037.8kbits/s speed=0.0129x elapsed=0:05:18.83    \nframe=  249 fps=0.8 q=40.3 size=    1024KiB time=00:00:04.11 bitrate=2037.8kbits/s speed=0.0129x elapsed=0:05:19.36    \nframe=  249 fps=0.8 q=40.3 size=    1024KiB time=00:00:04.11 bitrate=2037.8kbits/s speed=0.0129x elapsed=0:05:20.01    \nframe=  249 fps=0.8 q=40.3 size=    1024KiB time=00:00:04.11 bitrate=2037.8kbits/s speed=0.0128x elapsed=0:05:20.55    \nframe=  250 fps=0.8 q=41.0 size=    1024KiB time=00:00:04.13 bitrate=2029.6kbits/s speed=0.0129x elapsed=0:05:21.12    \nframe=  250 fps=0.8 q=41.0 size=    1024KiB time=00:00:04.13 bitrate=2029.6kbits/s speed=0.0128x elapsed=0:05:21.74    \nframe=  250 fps=0.8 q=41.0 size=    1024KiB time=00:00:04.13 bitrate=2029.6kbits/s speed=0.0128x elapsed=0:05:22.26    \nframe=  251 fps=0.8 q=31.9 size=    1024KiB time=00:00:04.15 bitrate=2021.4kbits/s speed=0.0129x elapsed=0:05:22.83    \nframe=  251 fps=0.8 q=31.9 size=    1024KiB time=00:00:04.15 bitrate=2021.4kbits/s speed=0.0128x elapsed=0:05:23.39    \nframe=  251 fps=0.8 q=31.9 size=    1024KiB time=00:00:04.15 bitrate=2021.4kbits/s speed=0.0128x elapsed=0:05:24.01    \nframe=  251 fps=0.8 q=31.9 size=    1024KiB time=00:00:04.15 bitrate=2021.4kbits/s speed=0.0128x elapsed=0:05:24.55    \nframe=  251 fps=0.8 q=31.9 size=    1024KiB time=00:00:04.15 bitrate=2021.4kbits/s speed=0.0128x elapsed=0:05:25.07    \nframe=  252 fps=0.8 q=32.9 size=    1024KiB time=00:00:04.16 bitrate=2013.4kbits/s speed=0.0128x elapsed=0:05:25.60    \nframe=  253 fps=0.8 q=39.8 size=    1024KiB time=00:00:04.18 bitrate=2005.3kbits/s speed=0.0128x elapsed=0:05:26.22    \nframe=  253 fps=0.8 q=39.8 size=    1024KiB time=00:00:04.18 bitrate=2005.3kbits/s speed=0.0128x elapsed=0:05:26.74    \nframe=  254 fps=0.8 q=41.0 size=    1024KiB time=00:00:04.20 bitrate=1997.4kbits/s speed=0.0128x elapsed=0:05:27.32    \nframe=  254 fps=0.8 q=41.0 size=    1024KiB time=00:00:04.20 bitrate=1997.4kbits/s speed=0.0128x elapsed=0:05:27.93    \nframe=  254 fps=0.8 q=41.0 size=    1024KiB time=00:00:04.20 bitrate=1997.4kbits/s speed=0.0128x elapsed=0:05:28.46    \nframe=  255 fps=0.8 q=31.8 size=    1024KiB time=00:00:04.21 bitrate=1989.5kbits/s speed=0.0128x elapsed=0:05:28.98    \nframe=  255 fps=0.8 q=31.8 size=    1024KiB time=00:00:04.21 bitrate=1989.5kbits/s speed=0.0128x elapsed=0:05:29.58    \nframe=  255 fps=0.8 q=31.8 size=    1024KiB time=00:00:04.21 bitrate=1989.5kbits/s speed=0.0128x elapsed=0:05:30.21    \nframe=  255 fps=0.8 q=31.8 size=    1024KiB time=00:00:04.21 bitrate=1989.5kbits/s speed=0.0127x elapsed=0:05:30.80    \nframe=  256 fps=0.8 q=38.4 size=    1024KiB time=00:00:04.23 bitrate=1981.6kbits/s speed=0.0128x elapsed=0:05:31.39    \nframe=  257 fps=0.8 q=39.8 size=    1024KiB time=00:00:04.25 bitrate=1973.9kbits/s speed=0.0128x elapsed=0:05:31.92    \nframe=  257 fps=0.8 q=39.8 size=    1024KiB time=00:00:04.25 bitrate=1973.9kbits/s speed=0.0128x elapsed=0:05:32.51    \nframe=  257 fps=0.8 q=39.8 size=    1024KiB time=00:00:04.25 bitrate=1973.9kbits/s speed=0.0128x elapsed=0:05:33.10    \nframe=  257 fps=0.8 q=39.8 size=    1024KiB time=00:00:04.25 bitrate=1973.9kbits/s speed=0.0127x elapsed=0:05:33.62    \nframe=  257 fps=0.8 q=39.8 size=    1024KiB time=00:00:04.25 bitrate=1973.9kbits/s speed=0.0127x elapsed=0:05:34.15    \nframe=  257 fps=0.8 q=39.8 size=    1024KiB time=00:00:04.25 bitrate=1973.9kbits/s speed=0.0127x elapsed=0:05:34.80    \nframe=  258 fps=0.8 q=32.0 size=    1024KiB time=00:00:04.26 bitrate=1966.2kbits/s speed=0.0127x elapsed=0:05:35.37    \nframe=  258 fps=0.8 q=32.0 size=    1024KiB time=00:00:04.26 bitrate=1966.2kbits/s speed=0.0127x elapsed=0:05:35.90    \nframe=  258 fps=0.8 q=32.0 size=    1024KiB time=00:00:04.26 bitrate=1966.2kbits/s speed=0.0127x elapsed=0:05:36.47    \nframe=  258 fps=0.8 q=32.0 size=    1024KiB time=00:00:04.26 bitrate=1966.2kbits/s speed=0.0127x elapsed=0:05:37.03    \nframe=  258 fps=0.8 q=32.0 size=    1024KiB time=00:00:04.26 bitrate=1966.2kbits/s speed=0.0126x elapsed=0:05:37.59    \nframe=  258 fps=0.8 q=32.0 size=    1024KiB time=00:00:04.26 bitrate=1966.2kbits/s speed=0.0126x elapsed=0:05:38.14    \nframe=  258 fps=0.8 q=32.0 size=    1024KiB time=00:00:04.26 bitrate=1966.2kbits/s speed=0.0126x elapsed=0:05:38.67    \nframe=  258 fps=0.8 q=32.0 size=    1024KiB time=00:00:04.26 bitrate=1966.2kbits/s speed=0.0126x elapsed=0:05:39.19    \nframe=  259 fps=0.8 q=40.0 size=    1024KiB time=00:00:04.28 bitrate=1958.5kbits/s speed=0.0126x elapsed=0:05:39.71    \nframe=  259 fps=0.8 q=40.0 size=    1024KiB time=00:00:04.28 bitrate=1958.5kbits/s speed=0.0126x elapsed=0:05:40.23    \nframe=  259 fps=0.8 q=40.0 size=    1024KiB time=00:00:04.28 bitrate=1958.5kbits/s speed=0.0126x elapsed=0:05:40.77    \nframe=  260 fps=0.8 q=33.5 size=    1024KiB time=00:00:04.30 bitrate=1950.9kbits/s speed=0.0126x elapsed=0:05:41.29    \nframe=  261 fps=0.8 q=38.1 size=    1024KiB time=00:00:04.31 bitrate=1943.4kbits/s speed=0.0126x elapsed=0:05:41.83    \nframe=  262 fps=0.8 q=39.8 size=    1024KiB time=00:00:04.33 bitrate=1935.9kbits/s speed=0.0127x elapsed=0:05:42.39    \nframe=  262 fps=0.8 q=39.8 size=    1024KiB time=00:00:04.33 bitrate=1935.9kbits/s speed=0.0126x elapsed=0:05:42.94    \nframe=  262 fps=0.8 q=39.8 size=    1024KiB time=00:00:04.33 bitrate=1935.9kbits/s speed=0.0126x elapsed=0:05:43.49    \nframe=  263 fps=0.8 q=44.0 size=    1024KiB time=00:00:04.35 bitrate=1928.5kbits/s speed=0.0126x elapsed=0:05:44.03    \nframe=  263 fps=0.8 q=44.0 size=    1024KiB time=00:00:04.35 bitrate=1928.5kbits/s speed=0.0126x elapsed=0:05:44.55    \nframe=  263 fps=0.8 q=44.0 size=    1024KiB time=00:00:04.35 bitrate=1928.5kbits/s speed=0.0126x elapsed=0:05:45.07    \nframe=  263 fps=0.8 q=44.0 size=    1024KiB time=00:00:04.35 bitrate=1928.5kbits/s speed=0.0126x elapsed=0:05:45.60    \nframe=  263 fps=0.8 q=44.0 size=    1024KiB time=00:00:04.35 bitrate=1928.5kbits/s speed=0.0126x elapsed=0:05:46.15    \nframe=  264 fps=0.8 q=44.0 size=    1024KiB time=00:00:04.36 bitrate=1921.1kbits/s speed=0.0126x elapsed=0:05:46.70    \nframe=  264 fps=0.8 q=44.0 size=    1024KiB time=00:00:04.36 bitrate=1921.1kbits/s speed=0.0126x elapsed=0:05:47.30    \nframe=  265 fps=0.8 q=36.8 size=    1024KiB time=00:00:04.36 bitrate=1921.1kbits/s speed=0.0126x elapsed=0:05:47.85    \nframe=  265 fps=0.8 q=36.8 size=    1024KiB time=00:00:04.38 bitrate=1913.8kbits/s speed=0.0126x elapsed=0:05:48.37    \nframe=  266 fps=0.8 q=45.9 size=    1024KiB time=00:00:04.40 bitrate=1906.6kbits/s speed=0.0126x elapsed=0:05:48.90    \nframe=  267 fps=0.8 q=45.9 size=    1024KiB time=00:00:04.41 bitrate=1899.4kbits/s speed=0.0126x elapsed=0:05:49.43    \nframe=  267 fps=0.8 q=45.9 size=    1024KiB time=00:00:04.41 bitrate=1899.4kbits/s speed=0.0126x elapsed=0:05:49.97    \nframe=  267 fps=0.8 q=45.9 size=    1024KiB time=00:00:04.41 bitrate=1899.4kbits/s speed=0.0126x elapsed=0:05:50.49    \nframe=  267 fps=0.8 q=45.9 size=    1024KiB time=00:00:04.41 bitrate=1899.4kbits/s speed=0.0126x elapsed=0:05:51.04    \nframe=  268 fps=0.8 q=47.0 size=    1024KiB time=00:00:04.43 bitrate=1892.2kbits/s speed=0.0126x elapsed=0:05:51.57    \nframe=  268 fps=0.8 q=47.0 size=    1024KiB time=00:00:04.43 bitrate=1892.2kbits/s speed=0.0126x elapsed=0:05:52.09    \nframe=  269 fps=0.8 q=47.0 size=    1024KiB time=00:00:04.45 bitrate=1885.2kbits/s speed=0.0126x elapsed=0:05:52.62    \nframe=  270 fps=0.8 q=39.7 size=    1024KiB time=00:00:04.46 bitrate=1878.1kbits/s speed=0.0126x elapsed=0:05:53.15    \nframe=  271 fps=0.8 q=47.0 size=    1024KiB time=00:00:04.48 bitrate=1871.1kbits/s speed=0.0127x elapsed=0:05:53.67    \nframe=  271 fps=0.8 q=47.0 size=    1024KiB time=00:00:04.48 bitrate=1871.1kbits/s speed=0.0127x elapsed=0:05:54.19    \nframe=  271 fps=0.8 q=47.0 size=    1024KiB time=00:00:04.48 bitrate=1871.1kbits/s speed=0.0126x elapsed=0:05:54.71    \nframe=  271 fps=0.8 q=47.0 size=    1024KiB time=00:00:04.48 bitrate=1871.1kbits/s speed=0.0126x elapsed=0:05:55.25    \nframe=  272 fps=0.8 q=47.0 size=    1024KiB time=00:00:04.50 bitrate=1864.2kbits/s speed=0.0126x elapsed=0:05:55.77    \nframe=  272 fps=0.8 q=47.0 size=    1024KiB time=00:00:04.50 bitrate=1864.2kbits/s speed=0.0126x elapsed=0:05:56.45    \nframe=  272 fps=0.8 q=47.0 size=    1024KiB time=00:00:04.50 bitrate=1864.2kbits/s speed=0.0126x elapsed=0:05:57.00    \nframe=  273 fps=0.8 q=47.0 size=    1024KiB time=00:00:04.51 bitrate=1857.3kbits/s speed=0.0126x elapsed=0:05:57.59    \nframe=  273 fps=0.8 q=47.0 size=    1024KiB time=00:00:04.51 bitrate=1857.3kbits/s speed=0.0126x elapsed=0:05:58.12    \nframe=  273 fps=0.8 q=47.0 size=    1024KiB time=00:00:04.51 bitrate=1857.3kbits/s speed=0.0126x elapsed=0:05:58.65    \nframe=  273 fps=0.8 q=47.0 size=    1024KiB time=00:00:04.51 bitrate=1857.3kbits/s speed=0.0126x elapsed=0:05:59.17    \nframe=  273 fps=0.8 q=47.0 size=    1024KiB time=00:00:04.51 bitrate=1857.3kbits/s speed=0.0126x elapsed=0:05:59.71    \nframe=  273 fps=0.8 q=47.0 size=    1024KiB time=00:00:04.51 bitrate=1857.3kbits/s speed=0.0125x elapsed=0:06:00.24    \nframe=  275 fps=0.8 q=46.4 size=    1024KiB time=00:00:04.55 bitrate=1843.7kbits/s speed=0.0126x elapsed=0:06:00.78    \nframe=  275 fps=0.8 q=46.4 size=    1024KiB time=00:00:04.55 bitrate=1843.7kbits/s speed=0.0126x elapsed=0:06:01.29    \nframe=  276 fps=0.8 q=46.9 size=    1024KiB time=00:00:04.56 bitrate=1837.0kbits/s speed=0.0126x elapsed=0:06:01.84    \nframe=  276 fps=0.8 q=46.9 size=    1024KiB time=00:00:04.56 bitrate=1837.0kbits/s speed=0.0126x elapsed=0:06:02.37    \nframe=  277 fps=0.8 q=47.0 size=    1024KiB time=00:00:04.58 bitrate=1830.3kbits/s speed=0.0126x elapsed=0:06:02.93    \nframe=  277 fps=0.8 q=47.0 size=    1024KiB time=00:00:04.58 bitrate=1830.3kbits/s speed=0.0126x elapsed=0:06:03.47    \nframe=  277 fps=0.8 q=47.0 size=    1024KiB time=00:00:04.58 bitrate=1830.3kbits/s speed=0.0126x elapsed=0:06:03.98    \nframe=  277 fps=0.8 q=47.0 size=    1024KiB time=00:00:04.58 bitrate=1830.3kbits/s speed=0.0126x elapsed=0:06:04.57    \nframe=  278 fps=0.8 q=46.0 size=    1024KiB time=00:00:04.60 bitrate=1823.7kbits/s speed=0.0126x elapsed=0:06:05.12    \nframe=  278 fps=0.8 q=46.0 size=    1024KiB time=00:00:04.60 bitrate=1823.7kbits/s speed=0.0126x elapsed=0:06:05.67    \nframe=  278 fps=0.8 q=46.0 size=    1024KiB time=00:00:04.60 bitrate=1823.7kbits/s speed=0.0126x elapsed=0:06:06.19    \nframe=  279 fps=0.8 q=38.7 size=    1024KiB time=00:00:04.61 bitrate=1817.1kbits/s speed=0.0126x elapsed=0:06:06.71    \nframe=  280 fps=0.8 q=45.9 size=    1024KiB time=00:00:04.63 bitrate=1810.6kbits/s speed=0.0126x elapsed=0:06:07.23    \nframe=  282 fps=0.8 q=46.0 size=    1024KiB time=00:00:04.66 bitrate=1797.6kbits/s speed=0.0127x elapsed=0:06:07.74    \nframe=  282 fps=0.8 q=46.0 size=    1024KiB time=00:00:04.66 bitrate=1797.6kbits/s speed=0.0127x elapsed=0:06:08.26    \nframe=  282 fps=0.8 q=46.0 size=    1024KiB time=00:00:04.66 bitrate=1797.6kbits/s speed=0.0127x elapsed=0:06:08.82    \nframe=  282 fps=0.8 q=46.0 size=    1024KiB time=00:00:04.66 bitrate=1797.6kbits/s speed=0.0126x elapsed=0:06:09.34    \nframe=  284 fps=0.8 q=39.1 size=    1024KiB time=00:00:04.70 bitrate=1784.9kbits/s speed=0.0127x elapsed=0:06:09.85    \nframe=  285 fps=0.8 q=45.5 size=    1024KiB time=00:00:04.71 bitrate=1778.6kbits/s speed=0.0127x elapsed=0:06:10.40    \nframe=  285 fps=0.8 q=45.5 size=    1024KiB time=00:00:04.71 bitrate=1778.6kbits/s speed=0.0127x elapsed=0:06:10.91    \nframe=  285 fps=0.8 q=45.5 size=    1024KiB time=00:00:04.71 bitrate=1778.6kbits/s speed=0.0127x elapsed=0:06:11.43    \nframe=  287 fps=0.8 q=46.0 size=    1024KiB time=00:00:04.75 bitrate=1766.1kbits/s speed=0.0128x elapsed=0:06:11.96    \nframe=  288 fps=0.8 q=35.0 size=    1024KiB time=00:00:04.76 bitrate=1759.9kbits/s speed=0.0128x elapsed=0:06:12.47    \nframe=  289 fps=0.8 q=45.0 size=    1024KiB time=00:00:04.78 bitrate=1753.8kbits/s speed=0.0128x elapsed=0:06:12.98    \nframe=  291 fps=0.8 q=43.9 size=    1024KiB time=00:00:04.81 bitrate=1741.7kbits/s speed=0.0129x elapsed=0:06:13.50    \nframe=  291 fps=0.8 q=43.9 size=    1024KiB time=00:00:04.81 bitrate=1741.7kbits/s speed=0.0129x elapsed=0:06:14.06    \nframe=  291 fps=0.8 q=43.9 size=    1024KiB time=00:00:04.81 bitrate=1741.7kbits/s speed=0.0129x elapsed=0:06:14.63    \nframe=  291 fps=0.8 q=43.9 size=    1024KiB time=00:00:04.81 bitrate=1741.7kbits/s speed=0.0128x elapsed=0:06:15.17    \nframe=  291 fps=0.8 q=43.9 size=    1024KiB time=00:00:04.81 bitrate=1741.7kbits/s speed=0.0128x elapsed=0:06:15.72    \nframe=  292 fps=0.8 q=35.4 size=    1024KiB time=00:00:04.83 bitrate=1735.6kbits/s speed=0.0128x elapsed=0:06:16.33    \nframe=  292 fps=0.8 q=35.4 size=    1024KiB time=00:00:04.83 bitrate=1735.6kbits/s speed=0.0128x elapsed=0:06:16.85    \nframe=  294 fps=0.8 q=43.0 size=    1024KiB time=00:00:04.86 bitrate=1723.8kbits/s speed=0.0129x elapsed=0:06:17.41    \nframe=  295 fps=0.8 q=43.0 size=    1024KiB time=00:00:04.88 bitrate=1717.9kbits/s speed=0.0129x elapsed=0:06:17.92    \nframe=  297 fps=0.8 q=37.4 size=    1024KiB time=00:00:04.91 bitrate=1706.2kbits/s speed=0.013x elapsed=0:06:18.48    \nframe=  297 fps=0.8 q=37.4 size=    1024KiB time=00:00:04.91 bitrate=1706.2kbits/s speed=0.013x elapsed=0:06:18.99    \n[mp4 @ 00000287982cad40] Starting second pass: moving the moov atom to the beginning of the file\n[out#0/mp4 @ 00000287982cac40] video:1262KiB audio:0KiB subtitle:0KiB other streams:0KiB global headers:2KiB muxing overhead: 0.546140%\nframe=  300 fps=0.8 q=40.7 Lsize=    1269KiB time=00:00:04.96 bitrate=2093.0kbits/s speed=0.0131x elapsed=0:06:19.30    \nx265 [info]: frame I:      2, Avg QP:35.09  kb/s: 12434.40\nx265 [info]: frame P:     73, Avg QP:32.53  kb/s: 7183.53 \nx265 [info]: frame B:    225, Avg QP:38.40  kb/s: 313.25  \nx265 [info]: Weighted P-Frames: Y:0.0% UV:0.0%\n\nencoded 300 frames in 378.90s (0.79 fps), 2065.83 kb/s, Avg QP:36.95\n",
  "seconds": 379.6556100845337,
  "probe_out": {}
}